<?xml version="1.0" encoding="utf-8"?>
<!-- Generator: Adobe Illustrator 26.2.1, SVG Export Plug-In . SVG Version: 6.00 Build 0)  -->
<svg version="1.1" id="Capa_1" xmlns="http://www.w3.org/2000/svg" xmlns:xlink="http://www.w3.org/1999/xlink" x="0px" y="0px"
	 viewBox="0 0 24 24" style="enable-background:new 0 0 24 24;" xml:space="preserve">
<style type="text/css">
	.st0{clip-path:url(#SVGID_00000149339742028169081630000003164245447690480264_);}
	.st1{fill:#FFFFFF;}
</style>
<g>
	<defs>
		<rect id="SVGID_1_" width="24" height="24"/>
	</defs>
	<clipPath id="SVGID_00000093869212766568444140000013300055024740700292_">
		<use xlink:href="#SVGID_1_"  style="overflow:visible;"/>
	</clipPath>
	<g style="clip-path:url(#SVGID_00000093869212766568444140000013300055024740700292_);">
		<path class="st1" d="M12,19.3c7.2,0,12.1-5.8,12.1-7.6c0-1.8-4.9-7.6-12.1-7.6c-7.1,0-12.1,5.8-12.1,7.6
			C-0.1,13.5,4.9,19.3,12,19.3z M12,17.6c-5.6,0-10-4.7-10-5.9c0-1,4.4-5.9,10-5.9c5.6,0,10,4.9,10,5.9C22,12.9,17.6,17.6,12,17.6z
			 M12,16.4c2.6,0,4.7-2.2,4.7-4.7C16.7,9,14.6,7,12,7C9.4,7,7.3,9,7.3,11.7C7.3,14.2,9.4,16.4,12,16.4z M12,13.2
			c-0.8,0-1.5-0.7-1.5-1.5c0-0.8,0.7-1.5,1.5-1.5s1.5,0.7,1.5,1.5C13.5,12.5,12.8,13.2,12,13.2z"/>
	</g>
</g>
</svg>
