<svg width="21" height="12" viewBox="0 0 21 12" fill="none" xmlns="http://www.w3.org/2000/svg">
<path d="M20 12C19.7348 12 19.4804 11.8946 19.2929 11.707C19.1054 11.5195 19 11.2652 19 11V1C19 0.734784 19.1054 0.480505 19.2929 0.292969C19.4804 0.105432 19.7348 0 20 0C20.2652 0 20.5196 0.105432 20.7071 0.292969C20.8946 0.480505 21 0.734784 21 1V11C21 11.2652 20.8946 11.5195 20.7071 11.707C20.5196 11.8946 20.2652 12 20 12ZM11.995 11.582C11.7993 11.5793 11.6087 11.5192 11.4468 11.4092C11.2849 11.2991 11.1589 11.1439 11.0844 10.9629C11.0098 10.7819 10.9901 10.583 11.0275 10.3909C11.065 10.1987 11.1579 10.0219 11.295 9.88208L14.175 7.00195H1C0.734784 7.00195 0.480444 6.89676 0.292908 6.70923C0.105371 6.52169 0 6.26717 0 6.00195C0 5.73674 0.105371 5.48246 0.292908 5.29492C0.480444 5.10739 0.734784 5.00195 1 5.00195H14.17L11.29 2.12207C11.1045 1.93226 11.0007 1.67747 11.0007 1.41211C11.0007 1.14675 11.1045 0.891716 11.29 0.701904C11.4773 0.515957 11.7306 0.411621 11.9945 0.411621C12.2584 0.411621 12.5117 0.515957 12.699 0.701904L17.289 5.29199C17.4753 5.47935 17.5798 5.73288 17.5798 5.99707C17.5798 6.26126 17.4753 6.51454 17.289 6.7019L12.699 11.292C12.6066 11.3844 12.4968 11.4576 12.376 11.5073C12.2551 11.5571 12.1257 11.5825 11.995 11.582Z" fill="white"/>
</svg>
