<svg width="29" height="29" viewBox="0 0 29 29" fill="none" xmlns="http://www.w3.org/2000/svg">
<g clip-path="url(#clip0_294_2407)">
<path d="M0.123286 10.8289C0.0316752 10.9313 -0.0121387 11.0678 0.00290852 11.2044L1.6238 25.8132C1.67912 26.3004 1.97785 26.7262 2.41709 26.9439C2.50693 27.0444 2.63505 27.1023 2.77004 27.1035H25.9526C26.6826 27.1021 27.2982 26.5595 27.3914 25.8355L29.0001 13.1459C29.0001 13.1406 29.0001 13.1362 29.0001 13.1308C28.9974 13.0682 28.9915 13.0056 28.9817 12.9436C28.9705 12.9147 28.9563 12.8868 28.9397 12.8607C28.9273 12.8328 28.9125 12.8062 28.8952 12.7812C28.8757 12.7613 28.8547 12.7429 28.8324 12.7261C28.8074 12.7018 28.7795 12.6801 28.7496 12.6619C28.7447 12.6619 28.7423 12.6546 28.7374 12.6522L26.4903 11.5292L24.9748 4.76175C24.9467 4.63606 24.8699 4.52675 24.7608 4.45815C24.6519 4.38933 24.5203 4.36698 24.3948 4.39575L12.5456 7.05644L7.55415 2.06344C7.36539 1.87469 7.05936 1.87469 6.87061 2.06344L0.141652 8.79372C-0.0471011 8.98248 -0.0471011 9.28851 0.141652 9.47726L1.33237 10.668H0.483532C0.345895 10.668 0.215118 10.7264 0.123286 10.8289ZM26.5313 24.9329L25.0854 11.9078L27.9979 13.3639L26.5313 24.9329ZM25.3751 10.9716L24.8694 10.7187C24.7811 10.6775 24.6825 10.6644 24.5866 10.6815C24.5632 10.6751 24.5393 10.6704 24.5152 10.668H21.908L18.6501 8.34076C18.5293 8.25446 18.3755 8.22835 18.233 8.27017C18.0907 8.31177 17.9752 8.41666 17.9201 8.55452L17.1606 10.4562L14.2603 8.79815C14.1105 8.71163 13.9262 8.71185 13.7764 8.79837C13.6268 8.88489 13.5349 9.04488 13.5352 9.2177V10.668H10.7654L10.2892 8.55341L24.1374 5.44728L25.3751 10.9716ZM20.2446 10.668H18.1177L18.591 9.48545L20.2446 10.668ZM15.5825 10.668H14.5019V10.0506L15.5825 10.668ZM1.16707 9.1356L7.21227 3.09019L11.429 7.30693L9.60521 7.71918C9.47952 7.74728 9.37043 7.82429 9.30183 7.93316C9.23323 8.04203 9.21088 8.17391 9.23965 8.29916L9.77427 10.668H2.69945L1.16707 9.1356ZM24.0823 11.6348L24.2348 13.004C24.2268 13.0306 24.2213 13.0576 24.2182 13.0848C24.2191 13.1552 24.2357 13.2242 24.2667 13.2875L24.8336 18.4022H16.919C16.6519 18.4022 16.4355 18.6186 16.4355 18.8857C16.4355 19.1526 16.6519 19.369 16.919 19.369H24.9433L25.6346 25.6001C25.6497 25.737 25.6056 25.874 25.5134 25.9767C25.4213 26.0791 25.2897 26.1373 25.1518 26.1367H3.06523C2.81916 26.1365 2.61226 25.951 2.58527 25.7063L1.88203 19.369H9.18455C9.45164 19.369 9.66805 19.1526 9.66805 18.8857C9.66805 18.6186 9.45164 18.4022 9.18455 18.4022H1.77471L1.02346 11.6348H24.0823Z" fill="#3B1163"/>
<path d="M13.0521 21.3026C14.3868 21.3026 15.4689 20.2206 15.4689 18.8858C15.4689 17.5508 14.3868 16.4688 13.0521 16.4688C11.7171 16.4688 10.635 17.5508 10.635 18.8858C10.6366 20.2199 11.7177 21.3011 13.0521 21.3026ZM13.0521 17.4355C13.8529 17.4355 14.5021 18.0848 14.5021 18.8858C14.5021 19.6866 13.8529 20.3359 13.0521 20.3359C12.251 20.3359 11.6018 19.6866 11.6018 18.8858C11.6018 18.0848 12.251 17.4355 13.0521 17.4355Z" fill="#3B1163"/>
<path d="M22.2367 9.70037C23.0375 9.70037 23.6867 9.0509 23.6867 8.25008C23.6867 7.44927 23.0375 6.7998 22.2367 6.7998C21.4356 6.7998 20.7864 7.44927 20.7864 8.25008C20.7864 9.0509 21.4356 9.70037 22.2367 9.70037ZM22.2367 7.76658C22.5035 7.76658 22.7199 7.983 22.7199 8.25008C22.7199 8.51695 22.5035 8.73336 22.2367 8.73336C21.9696 8.73336 21.7532 8.51695 21.7532 8.25008C21.7532 7.983 21.9696 7.76658 22.2367 7.76658Z" fill="#3B1163"/>
<path d="M7.67487 5.00875C7.48612 4.82 7.18009 4.82 6.99133 5.00875L3.12421 8.87609C2.99853 8.99735 2.94807 9.17704 2.99233 9.3461C3.03659 9.51515 3.16847 9.64704 3.33753 9.69129C3.50659 9.73555 3.68627 9.6851 3.80775 9.55941L7.67487 5.69229C7.86363 5.50354 7.86363 5.19751 7.67487 5.00875Z" fill="#3B1163"/>
<path d="M9.12545 6.45895C8.9367 6.27019 8.63066 6.27019 8.44191 6.45895L6.02485 8.87601C5.89916 8.99727 5.84871 9.17695 5.89297 9.34601C5.93722 9.51507 6.06933 9.64695 6.23816 9.69121C6.40722 9.73547 6.5869 9.68501 6.70839 9.55933L9.12545 7.14249C9.31398 6.95373 9.31398 6.6477 9.12545 6.45895Z" fill="#3B1163"/>
</g>
<defs>
<clipPath id="clip0_294_2407">
<rect width="29" height="29" fill="white"/>
</clipPath>
</defs>
</svg>
