<svg width="76" height="76" viewBox="0 0 76 76" fill="none" xmlns="http://www.w3.org/2000/svg">
<path d="M23.0097 31.2211C21.9594 30.0755 20.1455 29.9799 18.9996 31.0302C17.854 32.0804 17.7584 33.8944 18.8086 35.0402L33.2258 50.6986C33.7987 51.2715 34.467 51.6533 35.2307 51.6533C35.2307 51.6533 35.2307 51.6533 35.3261 51.6533C36.09 51.6533 36.8537 51.3669 37.3311 50.794L73.8037 14.4171C74.9494 13.2715 74.9494 11.4573 73.8037 10.407C72.6581 9.26138 70.8439 9.26138 69.7937 10.407L35.4219 44.6834L23.0097 31.2211Z" fill="#00C165"/>
<path d="M73.1358 35.1357C71.5126 35.1357 70.2715 36.3769 70.2715 37.9999C70.2715 55.7586 55.759 70.2713 38.0001 70.2713C20.2412 70.2713 5.72866 55.7588 5.72866 38.0001C5.72866 20.2414 20.2412 5.72866 38.0001 5.72866C39.6233 5.72866 40.8643 4.48742 40.8643 2.86442C40.8643 1.24142 39.6231 0 38.0001 0C17.0904 0 0 17.0904 0 38.0001C0 58.9098 17.0904 76.0002 38.0001 76.0002C58.9098 76.0002 76.0002 58.9098 76.0002 38.0001C76 36.3769 74.759 35.1357 73.1358 35.1357Z" fill="#00C165"/>
</svg>
