<?xml version="1.0" encoding="utf-8"?>
<!-- Generator: Adobe Illustrator 26.2.1, SVG Export Plug-In . SVG Version: 6.00 Build 0)  -->
<svg version="1.1" id="Capa_1" xmlns="http://www.w3.org/2000/svg" xmlns:xlink="http://www.w3.org/1999/xlink" x="0px" y="0px"
	 viewBox="0 0 26 26" style="enable-background:new 0 0 26 26;" xml:space="preserve">
<style type="text/css">
	.st0{fill:none;stroke:#FFFFFF;stroke-width:1.3;stroke-miterlimit:10;}
	.st1{fill:#FFFFFF;stroke:#3B1163;stroke-width:0.7;stroke-miterlimit:10;}
	.st2{fill:none;}
</style>
<path class="st0" d="M17.8,13.2c0-0.1,0-0.3-0.1-0.4c-0.1-0.1-0.1-0.3-0.2-0.4c-0.1-0.1-0.2-0.2-0.4-0.3S16.8,12,16.7,12h-7
	c-0.1,0-0.3,0-0.4,0.1c-0.1,0.1-0.3,0.1-0.4,0.3c-0.1,0.1-0.2,0.2-0.2,0.4c-0.1,0.1-0.1,0.3-0.1,0.4v11.2c0,0,0,0,0,0.1h9.3
	c0,0,0,0,0-0.1L17.8,13.2z"/>
<path class="st1" d="M24.8,7.1L24.8,7.1L24.8,7.1z"/>
<path class="st2" d="M13.2,7.1H7.4v0.1c0,0.1,0,0.3,0,0.4c0.1,0.7,0.4,1.3,1,1.8c0.5,0.5,1.2,0.7,1.9,0.7s1.4-0.3,1.9-0.7
	c0.5-0.5,0.9-1.1,1-1.8C13.2,7.4,13.2,7.3,13.2,7.1L13.2,7.1z"/>
<path class="st0" d="M19.1,7.1H7.6L7,8.6C6.6,9.4,6.6,9.3,6.3,9.5C5.7,9.9,5.4,10,4.9,10H3.8v13c0,0.4,0.1,0.8,0.4,1
	c0.3,0.3,0.6,0.4,1,0.5h3.4c0,0,0,0,0-0.1V13.2c0-0.1,0-0.3,0.1-0.4c0.1-0.1,0.1-0.3,0.2-0.4c0.1-0.1,0.2-0.2,0.4-0.3S9.6,12,9.7,12
	h7.1c0.1,0,0.3,0,0.4,0.1s0.3,0.1,0.4,0.3c0.1,0.1,0.2,0.2,0.2,0.4c0.1,0.1,0.1,0.3,0.1,0.4v11.2c0,0,0,0,0,0.1h3.4
	c0.4,0,0.7-0.2,1-0.5s0.4-0.7,0.4-1V10.1C20.4,10.2,18.9,9.2,19.1,7.1z"/>
<path class="st0" d="M7.4,7.1H1.6v0.1c0,0.7,0.3,1.5,0.8,2s1.2,0.9,1.9,0.9c0.7,0.1,1.5-0.2,2-0.7c0.6-0.5,0.9-1.1,1-1.9
	C7.4,7.4,7.4,7.3,7.4,7.1L7.4,7.1z"/>
<path class="st0" d="M18.9,7.1h-5.7v0.1c0,0.1,0,0.3,0,0.4c0.1,0.7,0.4,1.3,1,1.8c0.5,0.5,1.2,0.7,1.9,0.7s1.4-0.3,1.9-0.7
	c0.5-0.5,0.9-1.1,1-1.8C18.9,7.4,18.9,7.3,18.9,7.1L18.9,7.1z"/>
<path class="st0" d="M19,7.1L19,7.1c0,0.2,0,0.3,0,0.5c0,0.7,0.4,1.4,1,1.8c0.6,0.5,1.3,0.7,2,0.7c0.7-0.1,1.4-0.4,1.9-0.9
	s0.8-1.3,0.8-2V7.1H19z"/>
<path class="st0" d="M24.7,7.1L24,5.2l-1.6-3.9C22.3,1.1,22.2,1,22,0.9c-0.2-0.1-0.4-0.2-0.6-0.2H4.9c-0.2,0-0.4,0.1-0.6,0.2
	C4.1,0.9,4,1.1,3.9,1.3L2.4,5.2L1.6,7.1l0,0H24.7L24.7,7.1z"/>
</svg>
