<svg width="30" height="31" viewBox="0 0 30 31" fill="none" xmlns="http://www.w3.org/2000/svg">
<path d="M15.2311 7.93798C15.97 7.93798 16.6922 7.71889 17.3065 7.30842C17.9208 6.89795 18.3996 6.31453 18.6823 5.63195C18.9651 4.94936 19.0391 4.19825 18.8949 3.47362C18.7508 2.74899 18.395 2.0834 17.8726 1.56098C17.3502 1.03855 16.6845 0.682783 15.9599 0.538646C15.2353 0.394509 14.4842 0.468451 13.8016 0.751187C13.119 1.03392 12.5356 1.51272 12.1252 2.12703C11.7147 2.74134 11.4956 3.46356 11.4956 4.20239C11.4956 5.19312 11.8892 6.1433 12.5897 6.84385C13.2903 7.54441 14.2404 7.93798 15.2311 7.93798V7.93798ZM15.2311 1.81072C15.7042 1.81072 16.1666 1.95104 16.5599 2.21384C16.9532 2.47664 17.2598 2.85014 17.4408 3.28716C17.6218 3.72418 17.6692 4.20507 17.5769 4.66901C17.4846 5.13295 17.2568 5.55911 16.9223 5.89359C16.5879 6.22807 16.1617 6.45584 15.6978 6.54812C15.2338 6.6404 14.7529 6.59306 14.3159 6.41204C13.8789 6.23102 13.5054 5.92444 13.2426 5.53113C12.9798 5.13782 12.8395 4.67541 12.8395 4.20239C12.8402 3.5683 13.0925 2.96044 13.5408 2.51207C13.9892 2.0637 14.5971 1.81144 15.2311 1.81072V1.81072Z" fill="#3B1163"/>
<path d="M28.3439 9.59162C27.8795 9.08424 27.3142 8.67942 26.6843 8.40313C26.0544 8.12684 25.3736 7.98514 24.6858 7.98711C24.6502 7.98711 24.5865 7.98077 24.4981 7.98077C23.2814 8.00689 22.1168 8.47973 21.2263 9.30918C19.4952 10.8681 18.5659 13.5814 18.4565 17.3743H12.0031C11.8938 13.5814 10.9617 10.8681 9.23336 9.30918C8.3426 8.47952 7.17769 8.00666 5.96067 7.98077C5.86956 7.98077 5.80849 7.98074 5.76932 7.98711C5.08212 7.98536 4.40209 8.12712 3.77281 8.40324C3.14353 8.67937 2.57887 9.08379 2.11486 9.59068C0.24435 11.6717 0.470279 14.9845 0.481212 15.1248C0.490967 15.7093 0.630674 16.2843 0.890222 16.8082C1.14977 17.332 1.52269 17.7915 1.98184 18.1533C2.65125 18.6409 3.45524 18.9092 4.28331 18.9214H4.33703H10.457C10.4506 20.8411 10.5135 25.2655 11.1859 27.2444C11.4872 28.074 12.0366 28.7907 12.7595 29.2972C13.4823 29.8037 14.3436 30.0754 15.2262 30.0754C16.1088 30.0754 16.97 29.8037 17.6929 29.2972C18.4157 28.7907 18.9651 28.074 19.2665 27.2444C19.9425 25.2655 20.0054 20.842 19.9954 18.9214H26.1172H26.1746C27.0026 18.9096 27.8065 18.6409 28.4751 18.1524C28.933 17.7911 29.3047 17.3325 29.5634 16.8098C29.8222 16.2871 29.9614 15.7134 29.9711 15.1302C29.9875 14.9918 30.2135 11.6708 28.3439 9.59162ZM28.435 15.0245C28.4424 15.4278 28.3457 15.8262 28.1542 16.1811C27.9626 16.5361 27.6828 16.8356 27.3417 17.0508C26.9804 17.2564 26.5729 17.3671 26.1573 17.3725H26.1317H20.0082C20.1111 14.1107 20.881 11.73 22.2377 10.4845C22.8413 9.90029 23.6395 9.55962 24.479 9.52784C24.5345 9.52784 24.5701 9.52784 24.5701 9.52784H24.6229C25.1035 9.51802 25.5807 9.60985 26.0234 9.79732C26.466 9.9848 26.864 10.2637 27.1913 10.6157C28.6081 12.1992 28.4341 14.9963 28.4323 15.0236L28.435 15.0245ZM17.806 26.746C17.6092 27.2696 17.2574 27.7207 16.7975 28.0392C16.3376 28.3576 15.7915 28.5282 15.2321 28.5282C14.6727 28.5282 14.1267 28.3576 13.6668 28.0392C13.2069 27.7207 12.855 27.2696 12.6582 26.746C12.0632 25.0031 12.005 20.7719 12.0095 18.9241H18.4538C18.4602 20.7719 18.3991 25.0031 17.8033 26.746H17.806ZM3.27016 10.6275C3.59724 10.2741 3.99547 9.99395 4.43863 9.8055C4.88179 9.61705 5.35981 9.52455 5.84128 9.53418H5.88865C5.89503 9.53418 5.92787 9.53418 5.9798 9.53418C6.81985 9.56577 7.61864 9.9065 8.22293 10.4909C9.57866 11.7373 10.3486 14.1171 10.4524 17.3789H4.31701H4.29694C3.87745 17.371 3.46682 17.2569 3.10338 17.0472C2.76695 16.8292 2.49157 16.5291 2.30316 16.1753C2.11475 15.8214 2.01951 15.4254 2.02644 15.0245C2.02462 14.9899 1.84057 12.2138 3.26737 10.6275H3.27016Z" fill="#3B1163"/>
</svg>
