<svg width="18" height="16" viewBox="0 0 18 16" fill="none" xmlns="http://www.w3.org/2000/svg">
<path d="M10.2407 14.754C14.4777 10.904 17.2547 8.39401 17.1407 5.26201C17.1166 4.57769 16.9333 3.90845 16.6054 3.30733C16.2775 2.7062 15.814 2.18977 15.2517 1.79903C14.2936 1.15729 13.1318 0.892934 11.9903 1.0569C10.8489 1.22086 9.80847 1.80155 9.0697 2.68703C8.32973 1.803 7.28931 1.22341 6.14816 1.05952C5.00702 0.895633 3.84555 1.15898 2.88669 1.79903C2.32476 2.18998 1.86167 2.70649 1.53412 3.3076C1.20657 3.90871 1.02359 4.57787 0.999696 5.26201C0.899696 8.39401 3.66369 10.904 7.89969 14.737L7.98871 14.818C8.28447 15.0897 8.67102 15.2411 9.07263 15.2426C9.47425 15.2441 9.86195 15.0956 10.1597 14.826L10.2407 14.754Z" stroke="white" stroke-width="1.5"/>
</svg>
