<svg width="50" height="18" viewBox="0 0 50 18" fill="none" xmlns="http://www.w3.org/2000/svg">
<g clip-path="url(#clip0_508_3237)">
<path d="M18.3333 15.8131L20.8729 1.52734H24.8412L22.3809 15.8131H18.3333Z" fill="#3C58BF"/>
<path d="M18.3333 15.8131L21.5872 1.52734H24.8412L22.3809 15.8131H18.3333Z" fill="#293688"/>
<path d="M36.7461 1.6857C35.9525 1.36824 34.6826 1.05078 33.0953 1.05078C29.1271 1.05078 26.2699 3.03491 26.2699 5.89205C26.2699 8.03491 28.2541 9.14602 29.8414 9.8603C31.4287 10.5746 31.9049 11.0508 31.9049 11.6857C31.9049 12.6381 30.635 13.1143 29.5239 13.1143C27.9366 13.1143 27.0636 12.8762 25.7144 12.3206L25.1588 12.0825L24.6033 15.3365C25.5557 15.7333 27.3017 16.1301 29.1271 16.1301C33.3334 16.1301 36.1112 14.146 36.1112 11.1301C36.1112 9.46348 35.0795 8.19364 32.6985 7.16189C31.2699 6.44761 30.3969 6.05078 30.3969 5.3365C30.3969 4.70157 31.1112 4.06665 32.6985 4.06665C34.0477 4.06665 35.0001 4.30475 35.7144 4.62221L36.1112 4.78094L36.7461 1.6857Z" fill="#3C58BF"/>
<path d="M36.7461 1.6857C35.9525 1.36824 34.6826 1.05078 33.0953 1.05078C29.1271 1.05078 26.9842 3.03491 26.9842 5.89205C26.9842 8.03491 28.2541 9.14602 29.8414 9.8603C31.4287 10.5746 31.9049 11.0508 31.9049 11.6857C31.9049 12.6381 30.635 13.1143 29.5239 13.1143C27.9366 13.1143 27.0636 12.8762 25.7144 12.3206L25.1588 12.0825L24.6033 15.3365C25.5557 15.7333 27.3017 16.1301 29.1271 16.1301C33.3334 16.1301 36.1112 14.146 36.1112 11.1301C36.1112 9.46348 35.0795 8.19364 32.6985 7.16189C31.2699 6.44761 30.3969 6.05078 30.3969 5.3365C30.3969 4.70157 31.1112 4.06665 32.6985 4.06665C34.0477 4.06665 35.0001 4.30475 35.7144 4.62221L36.1112 4.78094L36.7461 1.6857Z" fill="#293688"/>
<path d="M43.5713 1.52734C42.6189 1.52734 41.9046 1.60671 41.5078 2.55909L35.5554 15.8131H39.8411L40.6348 13.4321H45.7141L46.1903 15.8131H49.9999L46.6665 1.52734H43.5713ZM41.7459 11.0512C41.984 10.3369 43.3332 6.8448 43.3332 6.8448C43.3332 6.8448 43.6507 5.97179 43.8888 5.41623L44.1268 6.76544C44.1268 6.76544 44.9205 10.3369 45.0792 11.1305H41.7459V11.0512Z" fill="#3C58BF"/>
<path d="M44.5237 1.52734C43.5713 1.52734 42.857 1.60671 42.4602 2.55909L35.5554 15.8131H39.8411L40.6348 13.4321H45.7141L46.1903 15.8131H49.9999L46.6665 1.52734H44.5237ZM41.7459 11.0512C42.0634 10.2575 43.3332 6.8448 43.3332 6.8448C43.3332 6.8448 43.6507 5.97179 43.8888 5.41623L44.1268 6.76544C44.1268 6.76544 44.9205 10.3369 45.0792 11.1305H41.7459V11.0512Z" fill="#293688"/>
<path d="M11.0317 11.5281L10.6349 9.46456C9.92062 7.08361 7.61903 4.46456 5.07935 3.19472L8.65077 15.8931H12.9365L19.3651 1.60742H15.0793L11.0317 11.5281Z" fill="#3C58BF"/>
<path d="M11.0317 11.5281L10.6349 9.46456C9.92062 7.08361 7.61903 4.46456 5.07935 3.19472L8.65077 15.8931H12.9365L19.3651 1.60742H15.873L11.0317 11.5281Z" fill="#293688"/>
<path d="M0 1.52734L0.714286 1.68607C5.79365 2.87655 9.28572 5.89242 10.6349 9.46385L9.20635 2.71782C8.96826 1.76544 8.25397 1.52734 7.38095 1.52734H0Z" fill="#FFBC00"/>
<path d="M0 1.52734C5.07937 2.71782 9.28572 5.81306 10.6349 9.38449L9.28572 3.74957C9.04762 2.79719 8.25397 2.24163 7.38095 2.24163L0 1.52734Z" fill="#F7981D"/>
<path d="M0 1.52734C5.07937 2.71782 9.28572 5.81306 10.6349 9.38449L9.68254 6.28925C9.44445 5.33687 9.12699 4.38449 8.01587 3.98766L0 1.52734Z" fill="#ED7C00"/>
<path d="M15 11.0517L12.3015 8.35333L11.0317 11.3692L10.7142 9.38508C9.99996 7.00412 7.69837 4.38508 5.15869 3.11523L8.73012 15.8136H13.0158L15 11.0517Z" fill="#051244"/>
<path d="M22.3809 15.8134L18.9682 12.3213L18.3333 15.8134H22.3809Z" fill="#051244"/>
<path d="M31.508 10.8926C31.8255 11.21 31.9842 11.4481 31.9049 11.7656C31.9049 12.718 30.635 13.1942 29.5239 13.1942C27.9366 13.1942 27.0636 12.9561 25.7144 12.4005L25.1588 12.1624L24.6033 15.4164C25.5557 15.8132 27.3017 16.21 29.1271 16.21C31.6668 16.21 33.7303 15.4958 34.9207 14.2259L31.508 10.8926Z" fill="#051244"/>
<path d="M36.1111 15.8138H39.8412L40.6349 13.4329H45.7143L46.1904 15.8138H50L48.6508 10.0202L43.8889 5.41699L44.127 6.68683C44.127 6.68683 44.9206 10.2583 45.0793 11.0519H41.746C42.0635 10.2583 43.3333 6.84556 43.3333 6.84556C43.3333 6.84556 43.6508 5.97255 43.8889 5.41699" fill="#051244"/>
</g>
<defs>
<clipPath id="clip0_508_3237">
<rect width="50" height="17.8571" fill="white"/>
</clipPath>
</defs>
</svg>
