<svg width="22" height="17" viewBox="0 0 22 17" fill="none" xmlns="http://www.w3.org/2000/svg">
<path d="M20 17H2C1.46957 17 0.960888 16.7893 0.585815 16.4142C0.210743 16.0391 0 15.5304 0 15V2C0 1.46957 0.210743 0.960858 0.585815 0.585785C0.960888 0.210712 1.46957 0 2 0H20C20.5304 0 21.0391 0.210712 21.4142 0.585785C21.7893 0.960858 22 1.46957 22 2V15C22 15.5304 21.7893 16.0391 21.4142 16.4142C21.0391 16.7893 20.5304 17 20 17ZM11 2V15H19C19.2652 15 19.5196 14.8946 19.7071 14.7071C19.8946 14.5196 20 14.2652 20 14V3C20 2.73478 19.8946 2.48043 19.7071 2.29289C19.5196 2.10536 19.2652 2 19 2H11ZM18.25 12H12.75C12.5508 12 12.3598 11.9209 12.2189 11.78C12.0781 11.6392 11.999 11.4482 11.999 11.249C12.0016 11.0507 12.0816 10.8613 12.2219 10.7212C12.3622 10.5811 12.5517 10.5013 12.75 10.499H18.25C18.4489 10.499 18.6397 10.578 18.7803 10.7187C18.921 10.8593 19 11.0501 19 11.249C19 11.4479 18.921 11.6387 18.7803 11.7793C18.6397 11.92 18.4489 11.999 18.25 11.999V12ZM18.25 9.5H12.75C12.6514 9.5 12.5537 9.48058 12.4626 9.44284C12.3715 9.4051 12.2887 9.34978 12.2189 9.28004C12.1492 9.21031 12.0939 9.12751 12.0562 9.03639C12.0184 8.94528 11.999 8.84762 11.999 8.74899C12.0016 8.55072 12.0816 8.36131 12.2219 8.22119C12.3622 8.08107 12.5517 8.00132 12.75 7.99899H18.25C18.4489 7.99899 18.6397 8.07802 18.7803 8.21867C18.921 8.35933 19 8.55008 19 8.74899C19 8.94791 18.921 9.13867 18.7803 9.27933C18.6397 9.41998 18.4489 9.49899 18.25 9.49899V9.5ZM18.25 7H12.75C12.5517 6.99767 12.3622 6.91794 12.2219 6.77782C12.0816 6.63769 12.0016 6.44828 11.999 6.25C11.999 6.05082 12.0781 5.8598 12.2189 5.71896C12.3598 5.57812 12.5508 5.49899 12.75 5.49899H18.25C18.4489 5.49899 18.6397 5.57802 18.7803 5.71867C18.921 5.85933 19 6.05008 19 6.24899C19 6.44791 18.921 6.63868 18.7803 6.77933C18.6397 6.91998 18.4489 6.99899 18.25 6.99899V7Z" fill="white"/>
</svg>
