<svg width="76" height="76" viewBox="0 0 76 76" fill="none" xmlns="http://www.w3.org/2000/svg">
<g clip-path="url(#clip0_216_1952)">
<path d="M74.5073 56.4619C71.9579 53.9125 68.5682 52.5083 64.9627 52.5083C61.7448 52.5083 58.6991 53.6266 56.269 55.6795C50.9713 51.2136 43.019 51.4744 38.0315 56.4619C37.8215 56.6718 37.7036 56.9565 37.7036 57.2534C37.7036 67.4905 46.0323 75.8192 56.2694 75.8192C66.5066 75.8192 74.8353 67.4905 74.8353 57.2534C74.8351 56.9565 74.7172 56.6717 74.5073 56.4619ZM55.1873 57.709C55.3669 58.1118 55.767 58.3726 56.2098 58.3726H56.3293C56.7722 58.3726 57.1724 58.1117 57.3518 57.7087C59.4337 55.7952 62.1177 54.747 64.9628 54.747C67.5247 54.747 69.9545 55.5994 71.9331 57.1655C63.0671 65.2978 49.3916 65.3303 40.4883 57.2607C44.7823 53.7754 51.0643 53.9232 55.1873 57.709ZM56.2693 73.5803C48.175 73.5803 41.4387 67.6598 40.1613 59.9217C44.8182 63.6579 50.4882 65.5275 56.159 65.5275C61.9332 65.5275 67.7065 63.5895 72.4105 59.716C71.2199 67.5545 64.4353 73.5803 56.2693 73.5803Z" fill="#3B1163"/>
<path d="M29.4083 33.2344C29.0692 33.0327 28.6485 33.0245 28.3017 33.2129C28.1028 33.3209 23.3709 35.922 18.1195 41.3559C13.2718 46.3719 7.07309 54.846 5.07112 66.7332C4.68266 69.0399 5.32732 71.3886 6.8402 73.1776C8.35723 74.9715 10.5741 76.0003 12.9226 76.0003H23.0472C26.8564 76.0003 29.9555 72.9014 29.9555 69.092V34.1964C29.9556 33.8017 29.7477 33.4363 29.4083 33.2344ZM27.7169 69.092C27.7169 71.6668 25.6221 73.7616 23.0473 73.7616H12.9227C11.2342 73.7616 9.64032 73.0217 8.5496 71.732C7.46304 70.4472 6.99992 68.7608 7.27898 67.1052C9.18002 55.8171 15.0685 47.7495 19.6737 42.9695C22.875 39.6466 25.9199 37.4033 27.7169 36.2081V69.092Z" fill="#976ACC"/>
<path d="M17.9106 66.4336C15.049 66.4336 12.1616 67.2844 12.1616 69.1855C12.1616 69.8037 12.6627 70.3048 13.281 70.3048C13.8295 70.3048 14.2859 69.9103 14.3817 69.3894C14.7131 69.1196 15.9882 68.6723 17.9106 68.6723C19.833 68.6723 21.108 69.1196 21.4396 69.3894C21.5354 69.9101 21.9917 70.3048 22.5402 70.3048C23.1585 70.3048 23.6596 69.8037 23.6596 69.1855C23.6596 67.2844 20.772 66.4336 17.9106 66.4336Z" fill="#976ACC"/>
<path d="M40.6258 17.4916C40.3507 17.0985 35.2161 9.86991 27.9112 6.61245L29.8508 2.44625C30.1118 1.8859 29.869 1.22001 29.3085 0.959203C28.7483 0.69825 28.0824 0.941094 27.8214 1.50159L25.8142 5.81341C24.7894 5.49041 23.7303 5.25691 22.6435 5.13653V1.11937C22.6435 0.501125 22.1423 0 21.5241 0C20.9059 0 20.4047 0.501125 20.4047 1.11937V5.05623C19.2775 5.10165 18.177 5.27384 17.11 5.54711L15.2266 1.50145C14.9657 0.940945 14.2999 0.69825 13.7396 0.959055C13.1791 1.22001 12.9364 1.88575 13.1972 2.4461L14.9648 6.24298C7.19364 9.28328 1.65336 17.0828 1.36732 17.4916C1.09761 17.8769 1.09761 18.3899 1.36732 18.7753C1.72298 19.2837 10.2034 31.2237 20.9967 31.2237C31.7899 31.2237 40.2703 19.2834 40.6259 18.7751C40.8955 18.3898 40.8955 17.8769 40.6258 17.4916ZM14.9716 8.67469C16.8606 7.82503 18.8911 7.28175 20.9965 7.28175C23.1029 7.28175 25.1356 7.8277 27.0276 8.68092C28.5648 10.2604 29.4116 12.338 29.4116 14.5466C29.4116 16.7944 28.5363 18.9075 26.947 20.497C25.3576 22.0863 23.2443 22.9618 20.9964 22.9618C18.7486 22.9618 16.6353 22.0865 15.046 20.497C11.7908 17.2416 11.7671 11.9617 14.9716 8.67469ZM20.9968 28.9852C12.714 28.9852 5.5641 20.553 3.68324 18.133C4.72156 16.7939 7.3688 13.6184 10.9303 11.0464C10.5451 12.1573 10.3427 13.3364 10.3427 14.5467C10.3427 17.3924 11.451 20.0679 13.4632 22.0801C15.4754 24.0924 18.1509 25.2005 20.9965 25.2005C23.8422 25.2005 26.5178 24.0923 28.5299 22.0801C30.5423 20.0679 31.6504 17.3926 31.6504 14.5467C31.6504 13.339 31.4488 12.1628 31.0654 11.0541C34.6225 13.6249 37.2701 16.7959 38.3099 18.1336C36.4277 20.5552 29.2783 28.9852 20.9968 28.9852Z" fill="#976ACC"/>
<path d="M20.9961 8.96289C18.1623 8.96289 15.8569 11.2683 15.8569 14.1021C15.8569 16.9359 18.1623 19.2413 20.9961 19.2413C23.83 19.2413 26.1353 16.9359 26.1353 14.1021C26.1353 11.2683 23.83 8.96289 20.9961 8.96289ZM20.9961 17.0026C19.3969 17.0026 18.0957 15.7014 18.0957 14.1021C18.0957 12.5028 19.3969 11.2016 20.9961 11.2016C22.5954 11.2016 23.8966 12.5028 23.8966 14.1021C23.8966 15.7014 22.5956 17.0026 20.9961 17.0026Z" fill="#976ACC"/>
<path d="M60.2359 25.2197C57.4021 25.2197 55.0967 27.5251 55.0967 30.3589C55.0967 33.1927 57.4021 35.4981 60.2359 35.4981C63.0697 35.4981 65.3751 33.1927 65.3751 30.3589C65.3751 27.5251 63.0697 25.2197 60.2359 25.2197ZM60.2359 33.2594C58.6366 33.2594 57.3354 31.9582 57.3354 30.3589C57.3354 28.7595 58.6366 27.4585 60.2359 27.4585C61.8351 27.4585 63.1364 28.7597 63.1364 30.3589C63.1364 31.9583 61.8353 33.2594 60.2359 33.2594Z" fill="#976ACC"/>
<path d="M73.2191 32.0054C73.8373 32.0054 74.3384 31.5043 74.3384 30.886C74.3384 30.2678 73.8373 29.7667 73.2191 29.7667H69.2822C69.2368 28.6394 69.0646 27.5389 68.7913 26.4721L72.837 24.5887C73.3975 24.3278 73.6402 23.662 73.3794 23.1017C73.1184 22.5413 72.4527 22.2986 71.8923 22.5593L68.0954 24.3267C65.0551 16.5556 57.2556 11.0153 56.847 10.7292C56.4617 10.4594 55.9486 10.4594 55.5633 10.7292C55.0549 11.0849 43.1147 19.5653 43.1147 30.3586C43.1147 41.152 55.0551 49.6323 55.5633 49.988C55.756 50.1229 55.9806 50.1902 56.205 50.1902C56.4294 50.1902 56.654 50.1228 56.8467 49.988C57.2398 49.7129 64.4684 44.5783 67.7257 37.2734L71.8923 39.2131C72.0452 39.2843 72.2058 39.318 72.3639 39.318C72.7856 39.318 73.1897 39.0784 73.3794 38.6707C73.6403 38.1102 73.3975 37.4444 72.837 37.1836L68.525 35.1765C68.848 34.1516 69.0815 33.0924 69.2019 32.0057H73.2191V32.0054ZM56.2044 47.6721C53.7828 45.7934 45.3533 38.6558 45.3533 30.3585C45.3533 22.0757 53.7858 14.9257 56.2057 13.0449C57.5447 14.0836 60.7202 16.7309 63.2922 20.2925C62.1812 19.9071 61.0022 19.7048 59.7917 19.7048C56.946 19.7048 54.2706 20.8131 52.2583 22.8253C50.246 24.8375 49.1379 27.5128 49.1379 30.3586C49.1379 33.2045 50.246 35.8798 52.2583 37.892C54.2706 39.9043 56.946 41.0124 59.7917 41.0124C60.9994 41.0124 62.1756 40.811 63.2843 40.4274C60.7132 43.9849 57.5418 46.6326 56.2044 47.6721ZM65.6574 36.3895C64.0778 37.9269 62.0002 38.7737 59.7914 38.7737C57.5436 38.7737 55.4305 37.8984 53.841 36.309C52.2517 34.7197 51.3762 32.6064 51.3762 30.3586C51.3762 28.111 52.2515 25.9977 53.841 24.4082C55.4305 22.8189 57.5436 21.9436 59.7914 21.9436C62.003 21.9436 64.083 22.7925 65.6634 24.3335C66.5131 26.2224 67.0565 28.2529 67.0565 30.3583C67.0567 32.4648 66.5106 34.4975 65.6574 36.3895Z" fill="#976ACC"/>
<path d="M25.9834 43.2743C25.6469 42.7556 24.9536 42.6082 24.4351 42.9446C16.5584 48.0556 12.6778 58.7959 12.5164 59.2508C12.3097 59.8332 12.6144 60.4733 13.197 60.6799C13.3208 60.7239 13.447 60.7446 13.5714 60.7446C14.032 60.7446 14.4636 60.4583 14.6263 59.9993C14.6633 59.8951 18.4073 49.5247 25.6537 44.8226C26.1724 44.4863 26.3199 43.7929 25.9834 43.2743Z" fill="#976ACC"/>
<path d="M70.9593 6.25208C66.9497 2.24234 61.6106 0.0341797 55.9254 0.0341797C50.2401 0.0341797 44.9013 2.24234 40.8915 6.25193C40.2341 6.90936 39.8721 7.78336 39.8721 8.71317C39.8721 9.64298 40.2341 10.517 40.8915 11.1744C42.249 12.5316 44.457 12.5313 45.8139 11.1743C51.3893 5.59895 60.4615 5.59895 66.0369 11.1743C66.6943 11.8317 67.5684 12.1937 68.4981 12.1937C69.4278 12.1937 70.3019 11.8317 70.9593 11.1743C72.3165 9.81725 72.3165 7.60909 70.9593 6.25208ZM69.3764 9.59148C69.1417 9.82601 68.8299 9.9553 68.4982 9.9553C68.1666 9.9553 67.8545 9.82601 67.6201 9.59148C64.3959 6.36726 60.1608 4.75538 55.9256 4.75538C51.6904 4.75538 47.4551 6.36741 44.2309 9.59148C43.7467 10.0757 42.959 10.0757 42.4746 9.59148C42.2399 9.3568 42.1108 9.04493 42.1108 8.71332C42.1108 8.38171 42.2399 8.06955 42.4745 7.83516C46.0612 4.24832 50.8382 2.27306 55.9254 2.27306C61.0127 2.27306 65.7896 4.24832 69.3764 7.83516C69.6111 8.06984 69.7402 8.38171 69.7402 8.71332C69.7404 9.04508 69.6111 9.35694 69.3764 9.59148Z" fill="#3B1163"/>
<path d="M38.7771 36.7725C38.5666 36.4818 38.2294 36.3096 37.8704 36.3096C37.5115 36.3096 37.1743 36.4818 36.9638 36.7725C36.1817 37.853 33.6299 41.5286 33.6299 43.4646C33.6299 45.8027 35.5323 47.7051 37.8704 47.7051C40.2086 47.7051 42.111 45.8027 42.111 43.4646C42.1109 41.5286 39.5591 37.8529 38.7771 36.7725ZM37.8703 45.4662C36.7665 45.4662 35.8685 44.5682 35.8685 43.4644C35.8685 42.807 36.7955 41.0642 37.8697 39.4104C38.9466 41.0731 39.8721 42.8258 39.8721 43.4644C39.8723 44.5683 38.9742 45.4662 37.8703 45.4662Z" fill="#976ACC"/>
</g>
<defs>
<clipPath id="clip0_216_1952">
<rect width="76" height="76" fill="white"/>
</clipPath>
</defs>
</svg>
