<?xml version="1.0" encoding="utf-8"?>
<!-- Generator: Adobe Illustrator 26.2.1, SVG Export Plug-In . SVG Version: 6.00 Build 0)  -->
<svg version="1.1" id="Capa_1" xmlns="http://www.w3.org/2000/svg" xmlns:xlink="http://www.w3.org/1999/xlink" x="0px" y="0px"
	 viewBox="0 0 28.3 24" style="enable-background:new 0 0 28.3 24;" xml:space="preserve">
<style type="text/css">
	.st0{clip-path:url(#SVGID_00000111897553135465874590000010782142012384801685_);}
	.st1{fill:#FFFFFF;}
</style>
<g>
	<g>
		<defs>
			<rect id="SVGID_1_" x="2.1" width="24" height="24"/>
		</defs>
		<clipPath id="SVGID_00000029008536483392891600000000270974764845515664_">
			<use xlink:href="#SVGID_1_"  style="overflow:visible;"/>
		</clipPath>
		<g style="clip-path:url(#SVGID_00000029008536483392891600000000270974764845515664_);">
			<path class="st1" d="M14.1,4.1c-7.1,0-12,5.8-12,7.6s5,7.6,12.1,7.6c7.2,0,12.1-5.8,12.1-7.6C26.2,9.9,21.3,4.1,14.1,4.1z"/>
			<path class="st1" d="M14.1,7c-2.6,0-4.7,2-4.7,4.7c0,2.6,2.1,4.7,4.7,4.7s4.7-2.2,4.7-4.7C18.9,9,16.8,7,14.1,7z M14.1,13.2
				c-0.8,0-1.5-0.7-1.5-1.5s0.7-1.5,1.5-1.5s1.5,0.7,1.5,1.5C15.7,12.5,15,13.2,14.1,13.2z"/>
		</g>
	</g>
</g>
<rect x="13.4" y="20" class="st1" width="1.5" height="3.4"/>
<rect x="17.9" y="19.2" transform="matrix(0.9397 -0.342 0.342 0.9397 -6.0163 7.6375)" class="st1" width="1.5" height="3.4"/>
<rect x="21.9" y="17" transform="matrix(0.866 -0.5 0.5 0.866 -6.3258 13.8203)" class="st1" width="1.5" height="3.4"/>
<rect x="0.1" y="14.7" transform="matrix(0.766 -0.6428 0.6428 0.766 -9.5036 4.7641)" class="st1" width="3.4" height="1.5"/>
<rect x="4" y="18" transform="matrix(0.5 -0.866 0.866 0.5 -13.3814 14.2736)" class="st1" width="3.4" height="1.5"/>
<rect x="7.9" y="20.2" transform="matrix(0.342 -0.9397 0.9397 0.342 -13.2956 22.818)" class="st1" width="3.4" height="1.5"/>
<rect x="25.7" y="13.7" transform="matrix(0.6428 -0.766 0.766 0.6428 -2.347 25.8071)" class="st1" width="1.5" height="3.4"/>
</svg>
