<svg width="22" height="19" viewBox="0 0 22 19" fill="none" xmlns="http://www.w3.org/2000/svg">
<path d="M1 1.67395L3.84509 2.32095C4.03959 2.36506 4.22024 2.45637 4.37109 2.58682C4.52195 2.71727 4.63837 2.88287 4.71008 3.06897L8.08508 11.8149L18.3971 12.015C18.577 12.0179 18.7546 11.974 18.9124 11.8876C19.0701 11.8011 19.2026 11.6751 19.297 11.5219V11.5219C19.37 11.4032 19.4184 11.2709 19.4391 11.133L20.494 4.10995" stroke="white" stroke-width="1.5" stroke-miterlimit="10"/>
<path d="M18.542 14.579H7.83297C7.75104 14.5791 7.66976 14.5646 7.59298 14.536C7.4362 14.4796 7.29598 14.3849 7.18508 14.2606C7.07418 14.1362 6.99612 13.9862 6.95797 13.824C6.91529 13.648 6.9313 13.4629 7.0035 13.2968C7.0757 13.1307 7.20018 12.9928 7.35799 12.904C7.75199 12.679 8.26497 12.283 8.08297 11.813" stroke="white" stroke-width="1.5" stroke-miterlimit="10"/>
<path d="M9.68089 18.667C10.4342 18.667 11.0449 18.0563 11.0449 17.303C11.0449 16.5496 10.4342 15.939 9.68089 15.939C8.92758 15.939 8.31689 16.5496 8.31689 17.303C8.31689 18.0563 8.92758 18.667 9.68089 18.667Z" fill="white"/>
<path d="M16.9621 18.667C17.7155 18.667 18.3261 18.0563 18.3261 17.303C18.3261 16.5496 17.7155 15.939 16.9621 15.939C16.2088 15.939 15.5981 16.5496 15.5981 17.303C15.5981 18.0563 16.2088 18.667 16.9621 18.667Z" fill="white"/>
</svg>
