<svg width="22" height="24" viewBox="0 0 22 24" fill="none" xmlns="http://www.w3.org/2000/svg">
<path d="M1.25 22.8335L0.530889 22.6205C0.46368 22.8474 0.50748 23.0927 0.649055 23.2823C0.790631 23.4719 1.01338 23.5835 1.25 23.5835V22.8335ZM20.75 22.8335V23.5835C20.9866 23.5835 21.2094 23.4719 21.3509 23.2823C21.4925 23.0927 21.5363 22.8474 21.4691 22.6205L20.75 22.8335ZM15.6667 6.58354C15.6667 9.16087 13.5773 11.2502 11 11.2502V12.7502C14.4058 12.7502 17.1667 9.98929 17.1667 6.58354H15.6667ZM11 11.2502C8.42267 11.2502 6.33333 9.16087 6.33333 6.58354H4.83333C4.83333 9.98929 7.59424 12.7502 11 12.7502V11.2502ZM6.33333 6.58354C6.33333 4.00621 8.42267 1.91687 11 1.91687V0.41687C7.59424 0.41687 4.83333 3.17778 4.83333 6.58354H6.33333ZM11 1.91687C13.5773 1.91687 15.6667 4.00621 15.6667 6.58354H17.1667C17.1667 3.17778 14.4058 0.41687 11 0.41687V1.91687ZM1.96911 23.0466C3.18676 18.9362 6.79087 16.0002 11 16.0002V14.5002C6.05883 14.5002 1.91727 17.9405 0.530889 22.6205L1.96911 23.0466ZM11 16.0002C15.2091 16.0002 18.8132 18.9362 20.0309 23.0466L21.4691 22.6205C20.0827 17.9405 15.9412 14.5002 11 14.5002V16.0002ZM1.25 23.5835H20.75V22.0835H1.25V23.5835Z" fill="#3B1163"/>
</svg>
