<svg width="25" height="24" viewBox="0 0 25 24" fill="none" xmlns="http://www.w3.org/2000/svg">
<path d="M1.9942 4.26822L2.1942 4.26841C2.19475 3.68685 2.42605 3.12926 2.83728 2.71802C3.24849 2.30681 3.80594 2.07556 4.38745 2.07498C4.82122 2.07499 5.24533 2.20363 5.60599 2.44461C5.96667 2.68561 6.2478 3.02815 6.4138 3.42891C6.5798 3.82968 6.62327 4.27067 6.53865 4.69611C6.45403 5.12151 6.24499 5.51232 5.93823 5.81909C5.63149 6.12582 5.24073 6.33471 4.81529 6.41934C4.38985 6.50396 3.94898 6.46053 3.54822 6.29453C3.14745 6.12852 2.80487 5.8474 2.56388 5.48673C2.32287 5.12604 2.1942 4.70199 2.1942 4.26822H1.9942ZM1.9942 4.26822C1.9948 3.63368 2.24717 3.02529 2.69586 2.5766C3.14455 2.12791 3.75284 1.87557 4.38739 1.87498C4.86073 1.87498 5.32353 2.01534 5.7171 2.27831C6.11067 2.54129 6.41743 2.91506 6.59857 3.35237C6.77971 3.78968 6.82715 4.27088 6.7348 4.73513C6.64246 5.19937 6.41435 5.62581 6.07965 5.96051C5.74495 6.29521 5.31855 6.52315 4.85431 6.61549C4.39006 6.70784 3.90899 6.66044 3.47168 6.4793C3.03437 6.29816 2.66056 5.99141 2.39758 5.59784C2.13461 5.20428 1.9942 4.74156 1.9942 4.26822ZM4.38766 7.98722L4.38788 7.98722C5.2693 7.98508 6.12134 7.66963 6.79162 7.09722C7.41846 6.56191 7.84811 5.83449 8.01576 5.03072H23.2994C23.5017 5.03072 23.6956 4.95038 23.8386 4.8074C23.9815 4.66443 24.0619 4.47049 24.0619 4.26822C24.0619 4.06596 23.9815 3.87203 23.8386 3.72906C23.6956 3.58607 23.5017 3.50572 23.2994 3.50572H8.01527C7.88077 2.86986 7.58151 2.27936 7.14603 1.79416C6.67254 1.2666 6.05797 0.885601 5.37485 0.696203C4.69172 0.506806 3.96866 0.516924 3.29111 0.725359C2.61355 0.933794 2.00983 1.33183 1.55127 1.87244C1.09274 2.41302 0.798342 3.07359 0.703236 3.77611C0.608135 4.4786 0.716124 5.19363 1.01443 5.8367C1.31275 6.47978 1.78901 7.02401 2.38675 7.40509C2.98449 7.78617 3.67876 7.98817 4.38766 7.98722ZM22.2602 16.2685C21.6795 15.9009 21.0087 15.7015 20.3221 15.6921L20.3197 15.6908L20.2711 15.691C19.3629 15.694 18.4872 16.0298 17.8098 16.6348C17.177 17.2001 16.7582 17.9638 16.6202 18.7975H1.3222C1.11996 18.7975 0.926063 18.8778 0.783079 19.0208L0.783078 19.0208C0.640109 19.1638 0.559705 19.3577 0.559705 19.56C0.559705 19.7622 0.640108 19.9562 0.783078 20.0991L0.783079 20.0991C0.926065 20.2421 1.11996 20.3225 1.3222 20.3225H16.6653C16.8233 20.9473 17.1413 21.5214 17.5892 21.9875C18.0766 22.4948 18.698 22.8534 19.3811 23.0217C20.0642 23.19 20.7811 23.1611 21.4484 22.9384C22.1157 22.7156 22.7063 22.3082 23.1513 21.7633C23.5963 21.2184 23.8777 20.5585 23.9627 19.8601C24.0477 19.1617 23.9327 18.4535 23.6314 17.8178C23.3301 17.1821 22.8546 16.6449 22.2602 16.2685ZM12.351 14.1077H12.351C11.917 14.1079 11.4927 13.9793 11.1318 13.7383C10.7709 13.4973 10.4897 13.1547 10.3235 12.7538C10.1573 12.3529 10.1137 11.9117 10.1983 11.4861C10.2829 11.0605 10.4917 10.6695 10.7985 10.3626C11.1054 10.0557 11.4962 9.84664 11.9219 9.76193C12.3475 9.67722 12.7887 9.72063 13.1897 9.88667C13.5906 10.0527 13.9332 10.3339 14.1743 10.6947C14.4154 11.0554 14.5441 11.4795 14.5442 11.9132C14.5427 12.4944 14.3113 13.0515 13.9005 13.4626C13.4898 13.8738 12.9332 14.1057 12.3521 14.1077C12.352 14.1077 12.3519 14.1077 12.3518 14.1077L12.351 14.1077ZM20.2717 21.604C19.8377 21.6041 19.4133 21.4755 19.0524 21.2345C18.6915 20.9935 18.4102 20.6508 18.2441 20.2499C18.0779 19.849 18.0344 19.4078 18.1191 18.9821C18.2037 18.5564 18.4126 18.1654 18.7195 17.8586C19.0264 17.5517 19.4175 17.3427 19.8431 17.2581C20.2688 17.1735 20.71 17.217 21.1109 17.3831C21.5119 17.5493 21.8544 17.8306 22.0955 18.1915C22.3365 18.5524 22.4651 18.9767 22.465 19.4107C22.4632 19.9918 22.2316 20.5487 21.8206 20.9596C21.4097 21.3706 20.8529 21.6022 20.2717 21.604ZM23.3009 11.1512H15.9812C15.8148 10.3468 15.3854 9.6187 14.7581 9.08332C14.0874 8.51079 13.2344 8.19626 12.3525 8.19626C11.4706 8.19626 10.6176 8.51079 9.94682 9.08332C9.31958 9.6187 8.89015 10.3468 8.7238 11.1512H1.31543C1.11318 11.1512 0.919287 11.2316 0.776304 11.3746C0.633335 11.5175 0.55293 11.7115 0.55293 11.9137C0.55293 12.116 0.633333 12.3099 0.776304 12.4529C0.91929 12.5959 1.11319 12.6762 1.31543 12.6762H8.7238C8.89015 13.4806 9.31958 14.2088 9.94682 14.7441C10.6176 15.3167 11.4706 15.6312 12.3525 15.6312C13.2344 15.6312 14.0874 15.3167 14.7581 14.7441C15.3854 14.2088 15.8148 13.4806 15.9812 12.6762H23.3009C23.5031 12.6762 23.6972 12.5959 23.8402 12.4529C23.9833 12.3098 24.0634 12.1158 24.0634 11.9137C24.0634 11.7116 23.9833 11.5176 23.8402 11.3746C23.6972 11.2315 23.5031 11.1512 23.3009 11.1512Z" fill="#3B1163" stroke="#3B1163" stroke-width="0.4"/>
</svg>
