<svg width="125" height="85" viewBox="0 0 125 85" fill="none" xmlns="http://www.w3.org/2000/svg">
<path d="M102.162 84.5035H22.1862C16.707 84.502 11.4222 82.4733 7.34951 78.808C3.27686 75.1426 0.704456 70.1 0.127709 64.6512C-0.449037 59.2025 1.01069 53.733 4.22573 49.2963C7.44078 44.8595 12.1837 41.7691 17.5412 40.6205C18.4743 37.4708 20.308 34.6628 22.8166 32.5419C25.3252 30.421 28.3992 29.08 31.6602 28.6837C32.1019 21.7884 34.8934 15.2524 39.5695 10.1656C44.2455 5.07886 50.5236 1.74846 57.3575 0.729125C64.1914 -0.290214 71.1682 1.06332 77.1251 4.56409C83.0821 8.06486 87.6595 13.5014 90.0942 19.9676C96.4329 20.8548 102.326 23.7312 106.926 28.1822C111.525 32.6333 114.593 38.4292 115.687 44.7355C119.361 47.5595 122.058 51.463 123.399 55.8981C124.741 60.3331 124.66 65.0772 123.168 69.464C121.677 73.8508 118.848 77.6602 115.081 80.3575C111.313 83.0549 106.796 84.5047 102.162 84.5035ZM33.6432 32.6547C30.7202 32.6602 27.8883 33.672 25.6238 35.5201C23.3593 37.3683 21.8004 39.9401 21.2092 42.8026L20.9242 44.2025L19.5062 44.4137C14.9893 45.0908 10.8954 47.4503 8.04543 51.0194C5.19549 54.5885 3.80023 59.1031 4.13943 63.6578C4.47863 68.2126 6.52724 72.4707 9.87441 75.5782C13.2216 78.6858 17.6198 80.4131 22.1872 80.4137H102.163C106.003 80.4111 109.742 79.1875 112.84 76.92C115.938 74.6526 118.235 71.4587 119.399 67.7999C120.563 64.1411 120.533 60.207 119.314 56.5663C118.095 52.9256 115.75 49.7667 112.617 47.5465L111.9 47.0387L111.776 46.1686C110.94 40.3717 108.181 35.0237 103.942 30.9825C99.7023 26.9414 94.2284 24.4415 88.3982 23.8837L87.0632 23.7577L86.6472 22.4835C84.7131 16.5764 80.7365 11.5524 75.4315 8.31335C70.1264 5.07435 63.8404 3.83272 57.7022 4.8114C51.5641 5.79008 45.9759 8.92479 41.9411 13.653C37.9064 18.3811 35.6893 24.3928 35.6882 30.6085V32.6527L33.6432 32.6547Z" fill="url(#paint0_linear_336_2146)"/>
<path d="M68.1533 48.6921L62.2042 42.6282C62.1489 42.572 62.0831 42.5273 62.0106 42.4966C61.938 42.4659 61.8601 42.4498 61.7813 42.4492C61.7703 42.4492 61.7592 42.4492 61.7482 42.4492H61.7213C61.6061 42.4499 61.4935 42.4839 61.397 42.5469C61.3006 42.6098 61.2243 42.6991 61.1772 42.8042L55.2933 48.6882C55.2017 48.8036 55.1557 48.9487 55.1641 49.0957C55.1725 49.2428 55.2347 49.3814 55.3389 49.4856C55.443 49.5897 55.5818 49.652 55.7289 49.6604C55.8759 49.6688 56.0209 49.6229 56.1362 49.5312L61.1252 44.5422V62.0962C61.1155 62.1803 61.1236 62.2655 61.1491 62.3462C61.1746 62.4269 61.2169 62.5013 61.2732 62.5645C61.3295 62.6277 61.3985 62.6783 61.4757 62.7129C61.5529 62.7475 61.6366 62.7654 61.7213 62.7654C61.8059 62.7654 61.8896 62.7475 61.9668 62.7129C62.044 62.6783 62.113 62.6277 62.1693 62.5645C62.2256 62.5013 62.2679 62.4269 62.2934 62.3462C62.3189 62.2655 62.327 62.1803 62.3173 62.0962V44.4463L67.3022 49.5273C67.4167 49.6201 67.5613 49.6674 67.7085 49.6604C67.8557 49.6534 67.9951 49.5924 68.1002 49.4893C68.2054 49.3861 68.2689 49.2478 68.2787 49.1008C68.2885 48.9538 68.2438 48.8083 68.1533 48.6921Z" fill="#3B1163" stroke="#3B1163"/>
<defs>
<linearGradient id="paint0_linear_336_2146" x1="0.00439453" y1="42.451" x2="124.35" y2="42.451" gradientUnits="userSpaceOnUse">
<stop stop-color="#3B1163"/>
<stop offset="1" stop-color="#00FF9D"/>
</linearGradient>
</defs>
</svg>
