<svg width="11" height="23" viewBox="0 0 11 23" fill="none" xmlns="http://www.w3.org/2000/svg">
<path d="M10.2498 5.00002C10.4483 5.00133 10.6383 5.08072 10.7787 5.22109C10.919 5.36146 10.9985 5.55151 10.9998 5.75002V16.5C11 17.2681 10.8393 18.0278 10.5283 18.7301C10.2173 19.4325 9.76272 20.062 9.19384 20.5781C8.62496 21.0943 7.95435 21.4856 7.22515 21.7271C6.49595 21.9685 5.72433 22.0546 4.95983 21.98C3.57432 21.8077 2.30139 21.1294 1.3858 20.0753C0.470201 19.0213 -0.0234415 17.666 -0.00019111 16.27V4.00002C-5.96659e-05 3.44192 0.116883 2.88998 0.343071 2.37978C0.569258 1.86957 0.899695 1.41235 1.31316 1.03749C1.72663 0.66264 2.21396 0.378505 2.74383 0.203265C3.2737 0.028025 3.83439 -0.0343771 4.38982 0.0200372C5.39746 0.144728 6.32343 0.637415 6.9898 1.40346C7.65617 2.1695 8.01588 3.15487 7.99981 4.17006V14.5C8.00031 14.8506 7.9271 15.1973 7.7849 15.5177C7.64271 15.8381 7.4347 16.125 7.17443 16.3598C6.91416 16.5946 6.60746 16.7721 6.27416 16.8806C5.94086 16.9892 5.58843 17.0265 5.2398 16.99C4.60915 16.902 4.03275 16.5856 3.61986 16.1008C3.20698 15.6161 2.98635 14.9966 2.99981 14.36V5.75002C2.99981 5.55111 3.07882 5.3604 3.21947 5.21974C3.36013 5.07909 3.5509 5.00002 3.74981 5.00002C3.94872 5.00002 4.13949 5.07909 4.28014 5.21974C4.4208 5.3604 4.49981 5.55111 4.49981 5.75002V14.5C4.49981 14.7652 4.60518 15.0196 4.79272 15.2072C4.98025 15.3947 5.23459 15.5 5.49981 15.5C5.76503 15.5 6.01936 15.3947 6.2069 15.2072C6.39444 15.0196 6.49981 14.7652 6.49981 14.5V4.00002C6.50031 3.64948 6.4271 3.30272 6.2849 2.98232C6.14271 2.66192 5.9347 2.37508 5.67443 2.14028C5.41416 1.90547 5.10746 1.72798 4.77416 1.6194C4.44086 1.51083 4.08843 1.47357 3.7398 1.51003C3.10915 1.59805 2.53275 1.91442 2.11986 2.39919C1.70698 2.88395 1.48635 3.50341 1.49981 4.14003V16.5C1.49886 17.0584 1.61505 17.6109 1.84087 18.1216C2.0667 18.6323 2.39713 19.0899 2.81084 19.465C3.22455 19.8401 3.71232 20.1243 4.24267 20.2991C4.77302 20.4739 5.33417 20.5355 5.88982 20.48C6.89746 20.3553 7.82343 19.8626 8.4898 19.0966C9.15617 18.3305 9.51588 17.3452 9.49981 16.33V5.75002C9.50112 5.55151 9.58057 5.36146 9.72094 5.22109C9.86131 5.08072 10.0513 5.00133 10.2498 5.00002Z" fill="white"/>
</svg>
