<?xml version="1.0" encoding="UTF-8"?><svg id="a" xmlns="http://www.w3.org/2000/svg" viewBox="0 0 110.01 27.67"><defs><style>.b{fill:#3b1163;}</style></defs><path class="b" d="M16.4,6.39v15.51h-2.07v-3.98c-.54,1.3-1.45,2.4-2.62,3.18s-2.54,1.18-3.95,1.17c-1.05,0-2.09-.21-3.05-.62-.96-.41-1.84-1.02-2.56-1.78-.72-.76-1.29-1.66-1.66-2.64C.12,16.23-.04,15.19,0,14.14c-.05-1.05,.12-2.1,.48-3.08,.37-.98,.93-1.88,1.66-2.64,.72-.76,1.6-1.36,2.56-1.78s2-.63,3.05-.62c1.4-.01,2.78,.4,3.95,1.17,1.17,.77,2.08,1.88,2.62,3.18v-3.98h2.07Zm-2.07,7.75c0-2.95-2.61-5.17-6.08-5.17s-6.08,2.22-6.08,5.17,2.58,5.17,6.08,5.17,6.08-2.22,6.08-5.17Z"/><path class="b" d="M29.02,6.14h0v3.56c-3.83,0-6.11,1.82-6.11,4.83v7.36h-2.07V6.38h2.07v4.11c.44-1.27,1.26-2.38,2.36-3.15,1.1-.78,2.41-1.2,3.75-1.19"/><path class="b" d="M38.16,9.27h0v7.84c0,1.25,.82,1.85,2.43,1.85h2.31v2.92h-2.49c-2.89,0-4.35-1.4-4.35-4.2V9.27h-3.34v-2.89h3.34V2.34h0l2.1-.52h0V6.38h5.05v2.89h-5.05Z"/><path class="b" d="M62.73,12.32h0v9.58h-2.07V13.14c0-2.52-2.01-4.17-5.08-4.17s-5.29,1.67-5.29,4.23v8.7h-2.07V6.39h2.07v3.56c.5-1.2,1.36-2.22,2.46-2.93,1.1-.7,2.38-1.05,3.69-1,.84-.05,1.68,.07,2.47,.37,.79,.3,1.5,.76,2.1,1.35,.6,.6,1.06,1.31,1.35,2.1,.3,.79,.42,1.63,.37,2.47"/><path class="b" d="M83.38,14.14c.05,1.05-.12,2.1-.49,3.08-.37,.98-.94,1.88-1.66,2.64-.73,.76-1.6,1.36-2.57,1.77-.97,.41-2.01,.62-3.06,.62-1.4,.01-2.78-.4-3.95-1.17-1.17-.77-2.08-1.88-2.62-3.18v9.76h-2.07V6.39h2.07v3.98c.54-1.3,1.45-2.4,2.62-3.18s2.54-1.18,3.95-1.17c1.05,0,2.09,.21,3.06,.62,.97,.41,1.84,1.02,2.57,1.77,.73,.76,1.29,1.66,1.66,2.64,.37,.98,.54,2.03,.49,3.08h0Zm-2.19,0c0-2.95-2.58-5.17-6.08-5.17s-6.08,2.22-6.08,5.17,2.61,5.17,6.08,5.17,6.08-2.22,6.08-5.17Z"/><path class="b" d="M103.87,14.14c.05,1.05-.12,2.1-.49,3.08-.37,.98-.94,1.88-1.66,2.64-.73,.76-1.6,1.36-2.57,1.77-.97,.41-2.01,.62-3.06,.62-1.4,.01-2.78-.4-3.95-1.17-1.17-.77-2.08-1.88-2.62-3.18v9.76h-2.07V6.39h2.07v3.98c.54-1.3,1.45-2.4,2.62-3.18,1.17-.77,2.54-1.18,3.95-1.17,1.05,0,2.09,.21,3.06,.62,.97,.41,1.84,1.02,2.57,1.77,.73,.76,1.29,1.66,1.66,2.64,.37,.98,.54,2.03,.49,3.08h0Zm-2.19,0c0-2.95-2.58-5.17-6.08-5.17s-6.08,2.22-6.08,5.17,2.62,5.17,6.08,5.17,6.08-2.22,6.08-5.17Z"/><path class="b" d="M110.01,0h-2.07V21.89h2.07V0Z"/></svg>