<?xml version="1.0" encoding="UTF-8"?>
<svg id="SVGDoc" width="220" height="56" xmlns="http://www.w3.org/2000/svg" version="1.1" xmlns:xlink="http://www.w3.org/1999/xlink" xmlns:avocode="https://avocode.com/" viewBox="0 0 110 28"><defs></defs><desc>Generated with Avocode.</desc><g><g><title>Group 130496</title><g><title>Trazado 501</title><path d="M16.3963,6.7162v15.507h-2.067v-3.983c-0.538,1.2957 -1.4503,2.4015 -2.6201,3.176c-1.1698,0.7745 -2.54397,1.1826 -3.94689,1.172c-1.04948,0.0003 -2.08812,-0.2123 -3.05309,-0.6249c-0.96497,-0.4125 -1.83623,-1.0166 -2.56106,-1.7755c-0.72484,-0.759 -1.28819,-1.6571 -1.65599,-2.64c-0.3678,-0.9829 -0.53241,-2.03025 -0.48386,-3.0786c-0.04855,-1.04836 0.11605,-2.09567 0.48386,-3.07859c0.3678,-0.98291 0.93116,-1.88101 1.656,-2.63997c0.72483,-0.75896 1.59609,-1.363 2.56106,-1.77559c0.96497,-0.41259 2.00361,-0.62516 3.05309,-0.62485c1.40289,-0.01046 2.77709,0.39764 3.94679,1.17215c1.1698,0.7745 2.0821,1.88023 2.6202,3.17585v-3.982zM14.3293,14.4702c0,-2.949 -2.615,-5.169 -6.081,-5.169c-3.5,0 -6.08199,2.22 -6.08199,5.169c0,2.949 2.58399,5.169 6.08199,5.169c3.466,0 6.081,-2.22 6.081,-5.169z" fill="#3b1163" fill-opacity="1"></path></g><g><title>Trazado 502</title><path d="M29.019,6.47003v0v3.55799c-3.831,0 -6.11101,1.82401 -6.11101,4.83401v7.35797v0h-2.06799v0v-15.50697v0h2.06799v0v4.105c0.43734,-1.2719 1.26175,-2.37506 2.35765,-3.1548c1.09591,-0.77974 2.40837,-1.19697 3.75336,-1.19319" fill="#3b1163" fill-opacity="1"></path></g><g><title>Trazado 503</title><path d="M38.162,9.6v0v7.844c0,1.247 0.822,1.855 2.433,1.855h2.311v0v2.919v0h-2.494c-2.888,0 -4.34801,-1.4 -4.34801,-4.2v-8.418v0h-3.34399v0v-2.889v0h3.34399v0v-4.044v0l2.10001,-0.517v0v4.561v0h5.048v0v2.889v0z" fill="#3b1163" fill-opacity="1"></path></g><g><title>Trazado 504</title><path d="M62.726,12.64545v0v9.57795v0h-2.07v0v-8.75695c0,-2.524 -2.007,-4.16501 -5.078,-4.16501c-3.162,0 -5.29001,1.67201 -5.29001,4.22601v8.69995v0h-2.06799v0v-15.51095v0h2.06799v0v3.55799c0.50002,-1.20332 1.35684,-2.22447 2.45502,-2.9259c1.09818,-0.70143 2.38496,-1.04942 3.68698,-0.9971c0.84013,-0.05224 1.68177,0.07477 2.46911,0.3726c0.7873,0.29783 1.5022,0.75966 2.0974,1.35487c0.5952,0.5952 1.0571,1.31018 1.3549,2.09748c0.2978,0.7873 0.4248,1.62893 0.3726,2.46906" fill="#3b1163" fill-opacity="1"></path></g><g><title>Trazado 505</title><path d="M83.379,14.46919c0.0451,1.05001 -0.1229,2.09831 -0.4938,3.08161c-0.3709,0.9834 -0.9371,1.8814 -1.6645,2.6401c-0.7273,0.7586 -1.6007,1.3621 -2.5676,1.7741c-0.9669,0.412 -2.00713,0.624 -3.05811,0.6232c-1.40309,0.0108 -2.77751,-0.3972 -3.94751,-1.1717c-1.16999,-0.7745 -2.08238,-1.8805 -2.62048,-3.1763v9.76h-2.067v-21.28501h2.067v3.984c0.53793,-1.29565 1.44996,-2.40148 2.61955,-3.17616c1.16959,-0.77468 2.54362,-1.18302 3.94646,-1.17284c1.05098,-0.00083 2.09129,0.21115 3.05809,0.62316c0.9669,0.41202 1.8403,1.01553 2.5676,1.77417c0.7274,0.75864 1.2935,1.6567 1.6645,2.64005c0.3709,0.98334 0.5389,2.03161 0.4938,3.08163zM81.187,14.46919c0,-2.949 -2.584,-5.169 -6.082,-5.169c-3.466,0 -6.08099,2.22 -6.08099,5.169c0,2.94901 2.61499,5.16901 6.08099,5.16901c3.5,0 6.082,-2.22 6.082,-5.16901z" fill="#3b1163" fill-opacity="1"></path></g><g><title>Trazado 506</title><path d="M103.87,14.46919c0.0451,1.05001 -0.1229,2.09831 -0.4938,3.08161c-0.371,0.9834 -0.9372,1.8814 -1.6645,2.6401c-0.7274,0.7586 -1.6008,1.3621 -2.5676,1.7741c-0.9669,0.412 -2.00713,0.624 -3.05811,0.6232c-1.4031,0.0108 -2.77752,-0.3972 -3.94751,-1.1717c-1.17,-0.7745 -2.08239,-1.8804 -2.62049,-3.1763v9.76h-2.06799v-21.285h2.06799v3.98401c0.53799,-1.29581 1.45018,-2.40175 2.61997,-3.17644c1.16978,-0.77469 2.54401,-1.18294 3.94702,-1.17257c1.05098,-0.00083 2.09122,0.21114 3.05812,0.62316c0.9668,0.41201 1.8403,1.01553 2.5676,1.77417c0.7274,0.75864 1.2935,1.6567 1.6645,2.64005c0.3709,0.98334 0.5389,2.03161 0.4938,3.08162zM101.679,14.46919c0,-2.949 -2.584,-5.169 -6.082,-5.169c-3.466,0 -6.08102,2.22 -6.08102,5.169c0,2.94901 2.61502,5.16901 6.08102,5.16901c3.5,0 6.082,-2.22 6.082,-5.16901z" fill="#3b1163" fill-opacity="1"></path></g><g><title>Rectángulo 746</title><path d="M110.008,0.33v0h-2.068v0v21.893v0h2.068v0z" fill="#3b1163" fill-opacity="1"></path></g></g></g></svg>