<svg width="26" height="26" viewBox="0 0 26 26" fill="none" xmlns="http://www.w3.org/2000/svg">
<g clip-path="url(#clip0_294_2634)">
<path d="M13 4.52148C10.8183 4.52148 9.04346 6.29625 9.04346 8.47802C9.04346 10.6598 10.8182 12.4346 13 12.4346C15.1818 12.4346 16.9565 10.6597 16.9565 8.47802C16.9565 6.2963 15.1818 4.52148 13 4.52148ZM13 11.3041C11.4423 11.3041 10.1739 10.0357 10.1739 8.47802C10.1739 6.9203 11.4423 5.65195 13 5.65195C14.5577 5.65195 15.8261 6.9203 15.8261 8.47802C15.8261 10.0357 14.5578 11.3041 13 11.3041Z" fill="#3B1163"/>
<path d="M20.9132 9.04395C19.3555 9.04395 18.0872 10.3123 18.0872 11.87C18.0872 13.4277 19.3555 14.6961 20.9132 14.6961C22.4709 14.6961 23.7393 13.4277 23.7393 11.87C23.7393 10.3123 22.4709 9.04395 20.9132 9.04395ZM20.9132 13.5657C19.9783 13.5657 19.2176 12.8049 19.2176 11.87C19.2176 10.9351 19.9783 10.1744 20.9132 10.1744C21.8481 10.1744 22.6089 10.9351 22.6089 11.87C22.6089 12.8049 21.8481 13.5657 20.9132 13.5657Z" fill="#3B1163"/>
<path d="M5.16738 9.04395C3.60849 9.04395 2.34131 10.3123 2.34131 11.87C2.34131 13.4277 3.60966 14.6961 5.16738 14.6961C6.7251 14.6961 7.99344 13.4277 7.99344 11.87C7.99344 10.3123 6.72621 9.04395 5.16738 9.04395ZM5.16738 13.5657C4.23249 13.5657 3.47172 12.8049 3.47172 11.87C3.47172 10.9351 4.23249 10.1744 5.16738 10.1744C6.10226 10.1744 6.86303 10.9351 6.86303 11.87C6.86303 12.8049 6.10221 13.5657 5.16738 13.5657Z" fill="#3B1163"/>
<path d="M12.9999 13.5654C8.94845 13.5654 5.6521 16.8618 5.6521 20.9133C5.6521 21.2253 5.90533 21.4785 6.21733 21.4785C6.52933 21.4785 6.78257 21.2253 6.78257 20.9133C6.78257 17.4847 9.57133 14.6959 12.9999 14.6959C16.4285 14.6959 19.2173 17.4847 19.2173 20.9133C19.2173 21.2253 19.4705 21.4785 19.7825 21.4785C20.0945 21.4785 20.3478 21.2253 20.3478 20.9133C20.3478 16.8618 17.0514 13.5654 12.9999 13.5654Z" fill="#3B1163"/>
<path d="M20.913 15.8262C19.9827 15.8262 19.0715 16.0805 18.278 16.561C18.0123 16.7238 17.9264 17.0708 18.0881 17.3376C18.2519 17.6044 18.5979 17.6892 18.8647 17.5275C19.4807 17.1533 20.1884 16.9566 20.913 16.9566C23.0947 16.9566 24.8695 18.7314 24.8695 20.9131C24.8695 21.2251 25.1228 21.4784 25.4348 21.4784C25.7468 21.4784 26 21.2251 26 20.9131C26 18.1085 23.7176 15.8262 20.913 15.8262Z" fill="#3B1163"/>
<path d="M7.72088 16.5598C6.92843 16.0805 6.01734 15.8262 5.08695 15.8262C2.28235 15.8262 0 18.1085 0 20.9131C0 21.2251 0.253235 21.4784 0.565235 21.4784C0.877235 21.4784 1.13047 21.2251 1.13047 20.9131C1.13042 18.7314 2.90523 16.9566 5.08695 16.9566C5.81158 16.9566 6.5192 17.1533 7.13419 17.5263C7.39982 17.688 7.74801 17.6032 7.9108 17.3364C8.07358 17.0696 7.98763 16.7226 7.72088 16.5598Z" fill="#3B1163"/>
</g>
<defs>
<clipPath id="clip0_294_2634">
<rect width="26" height="26" fill="white"/>
</clipPath>
</defs>
</svg>
