<?xml version="1.0" encoding="UTF-8"?>
<svg id="SVGDoc" width="148" height="128" xmlns="http://www.w3.org/2000/svg" version="1.1" xmlns:xlink="http://www.w3.org/1999/xlink" xmlns:avocode="https://avocode.com/" viewBox="0 0 74 64"><defs></defs><desc>Generated with Avocode.</desc><g><g><title>Trazado 457</title><path d="M17.0235,52.1776c-1.1003,0 -2.1758,-0.3262 -3.0906,-0.9375c-0.9148,-0.6113 -1.6278,-1.4801 -2.0488,-2.4966c-0.4211,-1.0165 -0.5313,-2.1351 -0.3167,-3.2142c0.2147,-1.0791 0.7445,-2.0703 1.5225,-2.8483c0.778,-0.778 1.7692,-1.3079 2.8484,-1.5226c1.0791,-0.2146 2.1976,-0.1044 3.2141,0.3167c1.0165,0.421 1.8853,1.134 2.4965,2.0488c0.6113,0.9148 0.9375,1.9904 0.9375,3.0907c-0.0015,1.4749 -0.5881,2.889 -1.6311,3.9319c-1.0429,1.0429 -2.4569,1.6295 -3.9318,1.6311zM17.0235,42.1266c-0.8878,0.0002 -1.7556,0.2637 -2.4937,0.757c-0.7381,0.4934 -1.3132,1.1945 -1.6528,2.0148c-0.3396,0.8203 -0.4285,1.7228 -0.2552,2.5935c0.1734,0.8707 0.601,1.6705 1.2288,2.2982c0.6278,0.6277 1.4278,1.0552 2.2986,1.2283c0.8707,0.1731 1.7733,0.0842 2.5935,-0.2556c0.8202,-0.3398 1.5212,-0.9151 2.0144,-1.6533c0.4932,-0.7382 0.7563,-1.6061 0.7563,-2.4939c-0.0013,-1.1903 -0.4748,-2.3315 -1.3166,-3.1731c-0.8418,-0.8416 -1.983,-1.3149 -3.1733,-1.3159zM15.4385,23.8686c-1.1001,0.0002 -2.1755,-0.3258 -3.0903,-0.9369c-0.9148,-0.611 -1.62798,-1.4796 -2.04911,-2.4959c-0.42113,-1.0163 -0.53139,-2.1347 -0.31689,-3.2137c0.2145,-1.0789 0.74415,-2.0701 1.522,-2.8481c0.7778,-0.778 1.7689,-1.3078 2.8479,-1.5225c1.0789,-0.2146 2.1972,-0.1046 3.2136,0.3163c1.0164,0.421 1.8851,1.1339 2.4963,2.0486c0.6112,0.9147 0.9375,1.9901 0.9375,3.0902c-0.0021,1.4742 -0.5886,2.8874 -1.6311,3.9298c-1.0424,1.0425 -2.4557,1.629 -3.9299,1.6311zM15.4385,13.8176c-0.8878,0 -1.7557,0.2632 -2.4939,0.7565c-0.7382,0.4932 -1.3136,1.1944 -1.6533,2.0146c-0.33978,0.8203 -0.42884,1.7229 -0.2556,2.5937c0.1732,0.8707 0.6007,1.6706 1.2285,2.2984c0.6278,0.6278 1.4278,1.0553 2.2986,1.2285c0.8707,0.1732 1.7732,0.0843 2.5935,-0.2555c0.8202,-0.3397 1.5214,-0.9151 2.0146,-1.6533c0.4933,-0.7382 0.7566,-1.606 0.7566,-2.4939c-0.001,-1.1903 -0.4743,-2.3317 -1.3159,-3.1734c-0.8416,-0.8418 -1.9828,-1.3152 -3.1731,-1.3166zM30.4475,19.5986c-1.1003,0 -2.1759,-0.3263 -3.0908,-0.9376c-0.9148,-0.6113 -1.6278,-1.4803 -2.0488,-2.4968c-0.421,-1.0166 -0.5312,-2.1351 -0.3164,-3.2143c0.2147,-1.0791 0.7446,-2.0704 1.5227,-2.84836c0.7781,-0.77796 1.7694,-1.30768 2.8486,-1.52221c1.0792,-0.21454 2.1979,-0.10419 3.2144,0.31701c1.0165,0.42121 1.8852,1.13436 2.4963,2.04936c0.6112,0.9149 0.9372,1.9906 0.937,3.0909c-0.0021,1.4746 -0.589,2.8881 -1.6318,3.9305c-1.0429,1.0425 -2.4566,1.629 -3.9312,1.6305zM30.4475,9.54661c-0.8878,0 -1.7557,0.26321 -2.4939,0.75647c-0.7382,0.49322 -1.3135,1.19442 -1.6533,2.01462c-0.3397,0.8203 -0.4288,1.7229 -0.2556,2.5937c0.1732,0.8707 0.6007,1.6706 1.2285,2.2984c0.6278,0.6278 1.4278,1.0553 2.2986,1.2285c0.8708,0.1732 1.7732,0.0843 2.5935,-0.2555c0.8203,-0.3397 1.5214,-0.9151 2.0147,-1.6533c0.4932,-0.7382 0.7565,-1.606 0.7565,-2.4939c-0.001,-1.1903 -0.4743,-2.3317 -1.3159,-3.1734c-0.8416,-0.84182 -1.9827,-1.31524 -3.1731,-1.31657zM43.3804,28.8976c-1.1,-0.0002 -2.1751,-0.3266 -3.0896,-0.9379c-0.9145,-0.6113 -1.6273,-1.48 -2.0481,-2.4963c-0.4208,-1.0164 -0.5309,-2.1347 -0.3162,-3.2135c0.2148,-1.0789 0.7446,-2.0698 1.5225,-2.8476c0.7779,-0.7777 1.7688,-1.3074 2.8476,-1.5219c1.0789,-0.2146 2.1974,-0.1043 3.2137,0.3167c1.0162,0.421 1.885,1.1338 2.4961,2.0485c0.6111,0.9146 0.937,1.9899 0.937,3.09c-0.0019,1.4747 -0.5885,2.8885 -1.6314,3.9312c-1.0429,1.0427 -2.4569,1.6292 -3.9316,1.6308zM43.3804,18.8465c-0.8879,0 -1.7557,0.2634 -2.4939,0.7566c-0.7382,0.4933 -1.3136,1.1944 -1.6533,2.0147c-0.3398,0.8202 -0.4286,1.7228 -0.2554,2.5936c0.1732,0.8708 0.6007,1.6705 1.2285,2.2983c0.6278,0.6278 1.4278,1.0555 2.2986,1.2287c0.8708,0.1732 1.773,0.0843 2.5933,-0.2555c0.8202,-0.3398 1.5214,-0.9151 2.0146,-1.6533c0.4933,-0.7382 0.7568,-1.6062 0.7568,-2.494c-0.0021,-1.1902 -0.4755,-2.331 -1.3168,-3.1729c-0.8414,-0.8419 -1.9822,-1.3162 -3.1724,-1.3191zM72.6533,10.17259c0.477,0.46701 0.152,1.26001 -0.019,1.59801c-1.4942,2.8895 -3.2615,5.6293 -5.2778,8.182c-3.6438,4.8306 -7.5321,9.4717 -11.6499,13.905c-0.4196,7.8734 -3.8426,15.2859 -9.564,20.711c-5.7214,5.425 -13.3057,8.4493 -21.1902,8.4499c-4.9883,0.0253 -9.9258,-1.002 -14.48998,-3.0149c-4.64,-2.131 -7.72086,-5.069 -8.91186,-8.5c-2.449,-7.047 3.73881,-13.821 9.36181,-18.264c0.40663,-0.2622 0.75223,-0.6089 1.01293,-1.0165c0.2607,-0.4075 0.4307,-0.8665 0.4983,-1.3456c0.116,-1.844 -1.96113,-3.9599 -4.16113,-6.1999c-2.991,-3.044 -6.38398,-6.496 -5.58398,-10.578c0.787,-4.04001 5.63604,-7.93996 14.82101,-11.92396c7.064,-3.064 15.8761,-1.87908 23.5701,3.16992c4.2987,2.82611 7.8782,6.61674 10.4539,11.07004c1.097,1.8971 1.9952,3.9024 2.6801,5.984c2.84,-2.446 5.7251,-4.7951 8.5401,-6.8811c2.504,-1.9767 5.1952,-3.7036 8.0356,-5.15597c0.623,-0.336 1.3941,-0.65489 1.8731,-0.18689zM45.9717,53.2346c4.881,-4.8545 7.9105,-11.263 8.564,-18.116c-2.816,3.037 -6.0694,6.4 -9.8164,10.1c-1.356,4.134 -3.7169,7.008 -7.0169,8.543c-1.9739,0.8801 -4.1158,1.3193 -6.2768,1.287c-2.6936,-0.0262 -5.3612,-0.5307 -7.8782,-1.49l0.4001,-1c0.3953,0.1397 0.8169,0.1888 1.2337,0.1438c0.4167,-0.045 0.818,-0.183 1.1743,-0.4038c1.21,-0.8 1.8969,-2.773 1.9809,-5.7c-0.0182,-1.1331 0.1941,-2.2581 0.6238,-3.3067c0.4298,-1.0486 1.068,-1.9989 1.8762,-2.7933c1.9129,-1.6216 4.3354,-2.5184 6.8431,-2.533c4.263,-4.318 9.8219,-9.73 15.6379,-14.8c-0.6766,-2.1655 -1.5909,-4.2495 -2.7261,-6.214c-2.493,-4.3077 -5.9561,-7.97458 -10.1147,-10.70907c-4.3258,-2.94413 -9.4144,-4.56661 -14.646,-4.66992c-2.717,-0.01887 -5.4091,0.52169 -7.9082,1.58801c-8.83602,3.832 -13.47884,7.47688 -14.19484,11.14388c-0.683,3.528 2.36005,6.6211 5.30005,9.6211c2.37399,2.421 4.61379,4.698 4.46779,7.021c-0.072,0.6308 -0.2807,1.2382 -0.6118,1.7798c-0.3311,0.5417 -0.7766,1.0046 -1.3052,1.3562c-7.67101,6.061 -10.78695,11.964 -9.01295,17.07c1.092,3.147 3.979,5.874 8.34399,7.874c4.42416,1.949 9.20956,2.9429 14.04396,2.917c3.9048,0.0105 7.773,-0.7536 11.3806,-2.2479c3.6076,-1.4944 6.8832,-3.6895 9.6367,-6.4582zM37.6804,39.0386c-1.38,0.0363 -2.7409,0.3328 -4.0109,0.874c-1.3092,0.553 -2.4182,1.4927 -3.1788,2.6932c-0.7605,1.2006 -1.1364,2.6048 -1.0771,4.0248c-0.096,3.35 -0.93,5.562 -2.478,6.577c-0.095,0.062 -0.1862,0.118 -0.2862,0.169c2.68,0.625 6.916,1.126 10.606,-0.592c2.97,-1.382 5.1173,-3.977 6.3843,-7.715l-1.0664,-1.078l-4.8909,-4.954zM71.6807,11.2876c0.027,-0.063 0.0577,-0.136 0.0747,-0.215c-0.1687,0.0667 -0.3324,0.1446 -0.4907,0.233l-0.042,0.021c-2.7993,1.4378 -5.4513,3.1459 -7.918,5.1c-2.222,1.647 -5.1411,3.9519 -8.7651,7.0869c-0.296,0.2547 -0.5959,0.5155 -0.8999,0.7821c-4.135,3.62 -9.1283,8.273 -14.9893,14.2l5.6001,5.667c4,-3.954 7.4429,-7.5361 10.3999,-10.754c0.3747,-0.4047 0.7414,-0.8047 1.1001,-1.2c12.786,-14.103 15.8742,-20.811 15.9102,-20.894l0.0146,-0.028z" fill="#ffffff" fill-opacity="1"></path><path d="M17.0235,52.1776c-1.1003,0 -2.1758,-0.3262 -3.0906,-0.9375c-0.9148,-0.6113 -1.6278,-1.4801 -2.0488,-2.4966c-0.4211,-1.0165 -0.5313,-2.1351 -0.3167,-3.2142c0.2147,-1.0791 0.7445,-2.0703 1.5225,-2.8483c0.778,-0.778 1.7692,-1.3079 2.8484,-1.5226c1.0791,-0.2146 2.1976,-0.1044 3.2141,0.3167c1.0165,0.421 1.8853,1.134 2.4965,2.0488c0.6113,0.9148 0.9375,1.9904 0.9375,3.0907c-0.0015,1.4749 -0.5881,2.889 -1.6311,3.9319c-1.0429,1.0429 -2.4569,1.6295 -3.9318,1.6311zM17.0235,42.1266c-0.8878,0.0002 -1.7556,0.2637 -2.4937,0.757c-0.7381,0.4934 -1.3132,1.1945 -1.6528,2.0148c-0.3396,0.8203 -0.4285,1.7228 -0.2552,2.5935c0.1734,0.8707 0.601,1.6705 1.2288,2.2982c0.6278,0.6277 1.4278,1.0552 2.2986,1.2283c0.8707,0.1731 1.7733,0.0842 2.5935,-0.2556c0.8202,-0.3398 1.5212,-0.9151 2.0144,-1.6533c0.4932,-0.7382 0.7563,-1.6061 0.7563,-2.4939c-0.0013,-1.1903 -0.4748,-2.3315 -1.3166,-3.1731c-0.8418,-0.8416 -1.983,-1.3149 -3.1733,-1.3159zM15.4385,23.8686c-1.1001,0.0002 -2.1755,-0.3258 -3.0903,-0.9369c-0.9148,-0.611 -1.62798,-1.4796 -2.04911,-2.4959c-0.42113,-1.0163 -0.53139,-2.1347 -0.31689,-3.2137c0.2145,-1.0789 0.74415,-2.0701 1.522,-2.8481c0.7778,-0.778 1.7689,-1.3078 2.8479,-1.5225c1.0789,-0.2146 2.1972,-0.1046 3.2136,0.3163c1.0164,0.421 1.8851,1.1339 2.4963,2.0486c0.6112,0.9147 0.9375,1.9901 0.9375,3.0902c-0.0021,1.4742 -0.5886,2.8874 -1.6311,3.9298c-1.0424,1.0425 -2.4557,1.629 -3.9299,1.6311zM15.4385,13.8176c-0.8878,0 -1.7557,0.2632 -2.4939,0.7565c-0.7382,0.4932 -1.3136,1.1944 -1.6533,2.0146c-0.33978,0.8203 -0.42884,1.7229 -0.2556,2.5937c0.1732,0.8707 0.6007,1.6706 1.2285,2.2984c0.6278,0.6278 1.4278,1.0553 2.2986,1.2285c0.8707,0.1732 1.7732,0.0843 2.5935,-0.2555c0.8202,-0.3397 1.5214,-0.9151 2.0146,-1.6533c0.4933,-0.7382 0.7566,-1.606 0.7566,-2.4939c-0.001,-1.1903 -0.4743,-2.3317 -1.3159,-3.1734c-0.8416,-0.8418 -1.9828,-1.3152 -3.1731,-1.3166zM30.4475,19.5986c-1.1003,0 -2.1759,-0.3263 -3.0908,-0.9376c-0.9148,-0.6113 -1.6278,-1.4803 -2.0488,-2.4968c-0.421,-1.0166 -0.5312,-2.1351 -0.3164,-3.2143c0.2147,-1.0791 0.7446,-2.0704 1.5227,-2.84836c0.7781,-0.77796 1.7694,-1.30768 2.8486,-1.52221c1.0792,-0.21454 2.1979,-0.10419 3.2144,0.31701c1.0165,0.42121 1.8852,1.13436 2.4963,2.04936c0.6112,0.9149 0.9372,1.9906 0.937,3.0909c-0.0021,1.4746 -0.589,2.8881 -1.6318,3.9305c-1.0429,1.0425 -2.4566,1.629 -3.9312,1.6305zM30.4475,9.54661c-0.8878,0 -1.7557,0.26321 -2.4939,0.75647c-0.7382,0.49322 -1.3135,1.19442 -1.6533,2.01462c-0.3397,0.8203 -0.4288,1.7229 -0.2556,2.5937c0.1732,0.8707 0.6007,1.6706 1.2285,2.2984c0.6278,0.6278 1.4278,1.0553 2.2986,1.2285c0.8708,0.1732 1.7732,0.0843 2.5935,-0.2555c0.8203,-0.3397 1.5214,-0.9151 2.0147,-1.6533c0.4932,-0.7382 0.7565,-1.606 0.7565,-2.4939c-0.001,-1.1903 -0.4743,-2.3317 -1.3159,-3.1734c-0.8416,-0.84182 -1.9827,-1.31524 -3.1731,-1.31657zM43.3804,28.8976c-1.1,-0.0002 -2.1751,-0.3266 -3.0896,-0.9379c-0.9145,-0.6113 -1.6273,-1.48 -2.0481,-2.4963c-0.4208,-1.0164 -0.5309,-2.1347 -0.3162,-3.2135c0.2148,-1.0789 0.7446,-2.0698 1.5225,-2.8476c0.7779,-0.7777 1.7688,-1.3074 2.8476,-1.5219c1.0789,-0.2146 2.1974,-0.1043 3.2137,0.3167c1.0162,0.421 1.885,1.1338 2.4961,2.0485c0.6111,0.9146 0.937,1.9899 0.937,3.09c-0.0019,1.4747 -0.5885,2.8885 -1.6314,3.9312c-1.0429,1.0427 -2.4569,1.6292 -3.9316,1.6308zM43.3804,18.8465c-0.8879,0 -1.7557,0.2634 -2.4939,0.7566c-0.7382,0.4933 -1.3136,1.1944 -1.6533,2.0147c-0.3398,0.8202 -0.4286,1.7228 -0.2554,2.5936c0.1732,0.8708 0.6007,1.6705 1.2285,2.2983c0.6278,0.6278 1.4278,1.0555 2.2986,1.2287c0.8708,0.1732 1.773,0.0843 2.5933,-0.2555c0.8202,-0.3398 1.5214,-0.9151 2.0146,-1.6533c0.4933,-0.7382 0.7568,-1.6062 0.7568,-2.494c-0.0021,-1.1902 -0.4755,-2.331 -1.3168,-3.1729c-0.8414,-0.8419 -1.9822,-1.3162 -3.1724,-1.3191zM72.6533,10.17259c0.477,0.46701 0.152,1.26001 -0.019,1.59801c-1.4942,2.8895 -3.2615,5.6293 -5.2778,8.182c-3.6438,4.8306 -7.5321,9.4717 -11.6499,13.905c-0.4196,7.8734 -3.8426,15.2859 -9.564,20.711c-5.7214,5.425 -13.3057,8.4493 -21.1902,8.4499c-4.9883,0.0253 -9.9258,-1.002 -14.48998,-3.0149c-4.64,-2.131 -7.72086,-5.069 -8.91186,-8.5c-2.449,-7.047 3.73881,-13.821 9.36181,-18.264c0.40663,-0.2622 0.75223,-0.6089 1.01293,-1.0165c0.2607,-0.4075 0.4307,-0.8665 0.4983,-1.3456c0.116,-1.844 -1.96113,-3.9599 -4.16113,-6.1999c-2.991,-3.044 -6.38398,-6.496 -5.58398,-10.578c0.787,-4.04001 5.63604,-7.93996 14.82101,-11.92396c7.064,-3.064 15.8761,-1.87908 23.5701,3.16992c4.2987,2.82611 7.8782,6.61674 10.4539,11.07004c1.097,1.8971 1.9952,3.9024 2.6801,5.984c2.84,-2.446 5.7251,-4.7951 8.5401,-6.8811c2.504,-1.9767 5.1952,-3.7036 8.0356,-5.15597c0.623,-0.336 1.3941,-0.65489 1.8731,-0.18689zM45.9717,53.2346c4.881,-4.8545 7.9105,-11.263 8.564,-18.116c-2.816,3.037 -6.0694,6.4 -9.8164,10.1c-1.356,4.134 -3.7169,7.008 -7.0169,8.543c-1.9739,0.8801 -4.1158,1.3193 -6.2768,1.287c-2.6936,-0.0262 -5.3612,-0.5307 -7.8782,-1.49l0.4001,-1c0.3953,0.1397 0.8169,0.1888 1.2337,0.1438c0.4167,-0.045 0.818,-0.183 1.1743,-0.4038c1.21,-0.8 1.8969,-2.773 1.9809,-5.7c-0.0182,-1.1331 0.1941,-2.2581 0.6238,-3.3067c0.4298,-1.0486 1.068,-1.9989 1.8762,-2.7933c1.9129,-1.6216 4.3354,-2.5184 6.8431,-2.533c4.263,-4.318 9.8219,-9.73 15.6379,-14.8c-0.6766,-2.1655 -1.5909,-4.2495 -2.7261,-6.214c-2.493,-4.3077 -5.9561,-7.97458 -10.1147,-10.70907c-4.3258,-2.94413 -9.4144,-4.56661 -14.646,-4.66992c-2.717,-0.01887 -5.4091,0.52169 -7.9082,1.58801c-8.83602,3.832 -13.47884,7.47688 -14.19484,11.14388c-0.683,3.528 2.36005,6.6211 5.30005,9.6211c2.37399,2.421 4.61379,4.698 4.46779,7.021c-0.072,0.6308 -0.2807,1.2382 -0.6118,1.7798c-0.3311,0.5417 -0.7766,1.0046 -1.3052,1.3562c-7.67101,6.061 -10.78695,11.964 -9.01295,17.07c1.092,3.147 3.979,5.874 8.34399,7.874c4.42416,1.949 9.20956,2.9429 14.04396,2.917c3.9048,0.0105 7.773,-0.7536 11.3806,-2.2479c3.6076,-1.4944 6.8832,-3.6895 9.6367,-6.4582zM37.6804,39.0386c-1.38,0.0363 -2.7409,0.3328 -4.0109,0.874c-1.3092,0.553 -2.4182,1.4927 -3.1788,2.6932c-0.7605,1.2006 -1.1364,2.6048 -1.0771,4.0248c-0.096,3.35 -0.93,5.562 -2.478,6.577c-0.095,0.062 -0.1862,0.118 -0.2862,0.169c2.68,0.625 6.916,1.126 10.606,-0.592c2.97,-1.382 5.1173,-3.977 6.3843,-7.715l-1.0664,-1.078l-4.8909,-4.954zM71.6807,11.2876c0.027,-0.063 0.0577,-0.136 0.0747,-0.215c-0.1687,0.0667 -0.3324,0.1446 -0.4907,0.233l-0.042,0.021c-2.7993,1.4378 -5.4513,3.1459 -7.918,5.1c-2.222,1.647 -5.1411,3.9519 -8.7651,7.0869c-0.296,0.2547 -0.5959,0.5155 -0.8999,0.7821c-4.135,3.62 -9.1283,8.273 -14.9893,14.2l5.6001,5.667c4,-3.954 7.4429,-7.5361 10.3999,-10.754c0.3747,-0.4047 0.7414,-0.8047 1.1001,-1.2c12.786,-14.103 15.8742,-20.811 15.9102,-20.894l0.0146,-0.028z" fill-opacity="0" fill="#ffffff" stroke-linejoin="miter" stroke-linecap="butt" stroke-opacity="1" stroke="#ffffff" stroke-miterlimit="20" stroke-width="1"></path></g></g></svg>