<?xml version="1.0" encoding="utf-8"?>
<!-- Generator: Adobe Illustrator 26.2.1, SVG Export Plug-In . SVG Version: 6.00 Build 0)  -->
<svg version="1.1" id="Capa_1" xmlns="http://www.w3.org/2000/svg" xmlns:xlink="http://www.w3.org/1999/xlink" x="0px" y="0px"
	 viewBox="0 0 83.1 83.1" style="enable-background:new 0 0 83.1 83.1;" xml:space="preserve">
<style type="text/css">
	.st0{clip-path:url(#SVGID_00000142135462539834712150000000972255158959734678_);}
	.st1{fill:#976ACC;}
	.st2{fill:#3B1163;}
</style>
<g>
	<defs>
		<rect id="SVGID_1_" x="0.1" y="0.5" width="57.4" height="57.4"/>
	</defs>
	<clipPath id="SVGID_00000029766965230596950350000005838685909503819687_">
		<use xlink:href="#SVGID_1_"  style="overflow:visible;"/>
	</clipPath>
	<g style="clip-path:url(#SVGID_00000029766965230596950350000005838685909503819687_);">
		<path class="st1" d="M39.5,51.3V57c0,0.5-0.4,1-1,1s-1-0.4-1-1v-5.7c0-4.4-3.6-8-8-8c-2.1,0-4-1.1-5.1-2.8c-0.3-0.5-0.1-1,0.3-1.3
			c0.5-0.3,1-0.1,1.3,0.3c0.7,1.2,2,1.9,3.4,1.9C35,41.4,39.5,45.9,39.5,51.3z M23.5,43.9l-3.4,2.6l-5.8-4.5c1.3-1,2.1-2.5,2.2-4.1
			c1.1,0.3,2.4,0.5,3.6,0.5c7.1,0,12.8-5.7,12.8-12.8c0-0.1,0-6.7,0-6.8c0-0.5-0.5-0.9-1-0.9c-0.2,0-1.3,0.2-2.5-0.5
			c-1.8-1.1-1.8-3.5-1.8-3.5c0-0.8-0.9-1.2-1.5-0.8c-3.9,2.8-8.6,4.7-13.6,5.4c-0.5,0.1-0.9,0.6-0.8,1.1c0.1,0.5,0.5,0.8,0.9,0.8
			c0.2,0,3.3-0.4,6.8-1.7c2.3-0.8,4.4-1.9,6.5-3.2c0.7,2.6,2.7,4.1,5,4.3v5.7c0,6-4.9,10.9-10.9,10.9S9.2,31.7,9.2,25.7v-6.7
			c0-0.5-0.4-1-1-1c-0.5,0-1,0.4-1,1v6.7c0,5.1,3,9.5,7.3,11.6v0.3c0,2.2-1.8,4-4,4c-1.2,0-2.4,0.2-3.5,0.7l-0.6-0.5
			C1.6,37.7,0.7,30.9,4,26c1.4-2.1,2.2-4.6,2.2-7.3v-5.2c0-6.1,4.9-11,11-11H23c6.1,0,11,4.9,11,11v5.2c0,2.6,0.8,5.2,2.2,7.3
			c2.6,4,2.6,9.2-0.1,13.1c-0.3,0.4-0.2,1,0.2,1.3c0.4,0.3,1,0.2,1.3-0.2c3.2-4.6,3.2-10.7,0.1-15.3c-1.2-1.9-1.9-4-1.9-6.3v-5.2
			c0-7.1-5.8-12.9-12.9-12.9h-5.7c-7.1,0-12.9,5.8-12.9,12.9v5.2c0,2.2-0.7,4.4-1.9,6.3C-1.5,30.7-0.4,38.6,5.2,43
			c-2.7,1.8-4.5,4.8-4.5,8.3V57c0,0.5,0.4,1,1,1s1-0.4,1-1v-5.7c0-4.4,3.6-8,8-8c0.6,0,1.3-0.1,1.9-0.3l7.1,5.5
			c0.3,0.3,0.8,0.3,1.2,0l4-3.1c0.4-0.3,0.5-0.9,0.2-1.3C24.5,43.7,23.9,43.6,23.5,43.9z"/>
	</g>
</g>
<g>
	<path class="st2" d="M83.1,70.8v5.7c0,0.5-0.4,1-1,1s-1-0.4-1-1v-5.7c0-4.4-3.6-8-8-8c-2.1,0-4-1.1-5.1-2.8c-0.3-0.5-0.1-1,0.3-1.3
		c0.5-0.3,1-0.1,1.3,0.3c0.7,1.2,2,1.9,3.4,1.9C78.7,60.9,83.1,65.3,83.1,70.8z M66.5,61.2c0.1,0.5-0.2,1-0.7,1.1
		c-2.5,0.5-5.1,0-7.1-1.4c-2,2.2-4.7,1.9-4.3,1.9c-4.4,0-8,3.6-8,8v5.7c0,0.5-0.4,1-1,1c-0.5,0-1-0.4-1-1v-5.7
		c0-5.5,4.4-9.9,9.9-9.9c2.2,0,4-1.8,4-4v-0.3c-4.2-2-7.1-6.2-7.3-11.1c-1.7-0.4-3-2-3-3.8v-5c-0.1-2.4,0.3-8.5,4.7-12.8
		c5.5-5.3,14.2-4.9,20.7-1.8c0.6,0.3,0.7,1.2,0.2,1.6c3.3,0.8,6.1,2.8,7.9,5.7c0.1,0.1,0.3,0.4,0.2,0.8c0,0.2-0.1,0.4-0.3,0.6
		c-1.2,1.2-1.8,2.7-1.8,4.4v6.5c0,0.5-0.4,1-1,1c-0.5,0-1-0.4-1-1v-6.5c0-1.9,0.7-3.7,1.9-5.2c-1.8-2.6-4.7-4.3-7.9-4.7L70,25.3
		c-1-0.1-1.2-1.5-0.3-1.8l0.8-0.3c-10-3.5-20.6,0.4-20.6,13.7v5c0,0.8,0.4,1.4,1.1,1.7v-6.2c0-3.7,3-6.7,6.7-6.7h12.2
		c3.7,0,6.7,3,6.7,6.7v7.8c0,8.3-8.1,14.6-16.4,12.2c-0.1,0.7-0.2,1.3-0.5,2c1.6,1.1,3.6,1.6,5.6,1.1C65.8,60.4,66.3,60.7,66.5,61.2
		z M63.8,56c6,0,10.9-4.9,10.9-10.9v-7.8c0-2.6-2.1-4.8-4.8-4.8H57.7c-2.6,0-4.8,2.1-4.8,4.8v7.8C52.9,51.1,57.8,56,63.8,56z
		 M73.5,72.5h-2.9c-0.5,0-1,0.4-1,1c0,0.5,0.4,1,1,1h2.9c0.5,0,1-0.4,1-1C74.4,72.9,74,72.5,73.5,72.5z"/>
</g>
</svg>
